<?xml version="1.0" encoding="utf-8"?>
<!-- Generator: Adobe Illustrator 16.0.0, SVG Export Plug-In . SVG Version: 6.00 Build 0)  -->
<!DOCTYPE svg PUBLIC "-//W3C//DTD SVG 1.1//EN" "http://www.w3.org/Graphics/SVG/1.1/DTD/svg11.dtd">
<svg version="1.1" id="Layer_1" xmlns="http://www.w3.org/2000/svg" xmlns:xlink="http://www.w3.org/1999/xlink" x="0px" y="0px"
	 width="100px" height="30px" viewBox="0 0 100 30" enable-background="new 0 0 100 30" xml:space="preserve">
<g>
	<path fill="none" stroke="#809097" stroke-miterlimit="10" d="M9.031,8.49c0-1.621,1.304-2.935,2.913-2.935
		c0.604,0,1.165,0.185,1.631,0.501l0.553,4.378c-0.43,0.488-1.02,0.831-1.687,0.946"/>
	<path fill="none" stroke="#809097" stroke-miterlimit="10" d="M22.419,24.326c1.609,0,2.914-1.305,2.914-2.914
		c0-0.686-0.236-1.316-0.632-1.813l-3.418-0.872c-0.734,0.31-1.316,0.915-1.594,1.665"/>
	<path fill="none" stroke="#809097" stroke-miterlimit="10" d="M20.191,20.538c-4.081-1.77-6.89-5.255-7.834-9.688"/>
	<path fill="none" stroke="#809097" stroke-miterlimit="10" d="M9.031,8.359c0,8.294,5.721,15.146,13.479,15.967"/>
</g>
<g>
	<path fill="#809097" d="M30.972,8.939c-0.729,0.979-1.26,2.279-1.26,4.087c0,1.779,0.55,3.059,1.26,4.058h-0.689
		c-0.63-0.83-1.31-2.109-1.31-4.058c0.01-1.969,0.68-3.248,1.31-4.087H30.972z"/>
	<path fill="#809097" d="M32.133,15.256c0.189,0.02,0.409,0,0.709-0.03c0.51-0.07,0.989-0.28,1.359-0.63
		c0.43-0.39,0.739-0.959,0.859-1.729h-0.03c-0.359,0.44-0.879,0.7-1.528,0.7c-1.17,0-1.919-0.88-1.919-1.989
		c0-1.229,0.889-2.309,2.219-2.309c1.329,0,2.148,1.08,2.148,2.739c0,1.429-0.479,2.429-1.119,3.048
		c-0.5,0.49-1.189,0.79-1.89,0.869c-0.319,0.05-0.6,0.06-0.809,0.05V15.256z M32.452,11.518c0,0.81,0.489,1.379,1.249,1.379
		c0.59,0,1.05-0.29,1.279-0.68c0.05-0.08,0.08-0.18,0.08-0.32c0-1.109-0.409-1.958-1.329-1.958
		C32.981,9.939,32.452,10.599,32.452,11.518z"/>
	<path fill="#809097" d="M38.661,10.199h-0.02l-1.13,0.609l-0.17-0.669l1.42-0.76h0.749v6.497h-0.85V10.199z"/>
	<path fill="#809097" d="M45.59,9.999c-0.18-0.01-0.409,0-0.659,0.04c-1.379,0.23-2.108,1.239-2.259,2.309h0.03
		c0.31-0.41,0.85-0.75,1.569-0.75c1.149,0,1.959,0.83,1.959,2.099c0,1.189-0.81,2.289-2.159,2.289c-1.39,0-2.299-1.079-2.299-2.769
		c0-1.279,0.46-2.289,1.1-2.928c0.539-0.53,1.259-0.859,2.079-0.959c0.26-0.04,0.479-0.05,0.639-0.05V9.999z M45.341,13.747
		c0-0.929-0.53-1.489-1.34-1.489c-0.529,0-1.02,0.33-1.259,0.8c-0.061,0.1-0.101,0.23-0.101,0.39c0.021,1.069,0.51,1.859,1.43,1.859
		C44.831,15.306,45.341,14.676,45.341,13.747z"/>
	<path fill="#809097" d="M46.763,17.085c0.709-0.99,1.259-2.289,1.259-4.088c0-1.789-0.539-3.068-1.259-4.058h0.68
		c0.64,0.819,1.309,2.099,1.309,4.067c0,1.959-0.669,3.229-1.309,4.078H46.763z"/>
	<path fill="#809097" d="M52.182,14.866c0.25,0.16,0.83,0.41,1.439,0.41c1.13,0,1.479-0.72,1.47-1.259
		c-0.011-0.91-0.83-1.299-1.68-1.299h-0.489v-0.66h0.489c0.64,0,1.449-0.33,1.449-1.1c0-0.52-0.329-0.979-1.139-0.979
		c-0.521,0-1.02,0.23-1.3,0.43l-0.229-0.64c0.34-0.25,0.999-0.5,1.699-0.5c1.279,0,1.858,0.76,1.858,1.549
		c0,0.669-0.399,1.239-1.199,1.529v0.02c0.8,0.16,1.449,0.76,1.449,1.669c0,1.04-0.81,1.949-2.369,1.949
		c-0.729,0-1.369-0.23-1.688-0.439L52.182,14.866z"/>
	<path fill="#809097" d="M60.811,9.999c-0.181-0.01-0.41,0-0.66,0.04c-1.379,0.23-2.108,1.239-2.259,2.309h0.03
		c0.31-0.41,0.85-0.75,1.569-0.75c1.149,0,1.958,0.83,1.958,2.099c0,1.189-0.809,2.289-2.158,2.289c-1.39,0-2.299-1.079-2.299-2.769
		c0-1.279,0.46-2.289,1.1-2.928c0.539-0.53,1.259-0.859,2.078-0.959c0.261-0.04,0.48-0.05,0.641-0.05V9.999z M60.561,13.747
		c0-0.929-0.53-1.489-1.34-1.489c-0.529,0-1.02,0.33-1.259,0.8c-0.061,0.1-0.101,0.23-0.101,0.39c0.021,1.069,0.51,1.859,1.43,1.859
		C60.051,15.306,60.561,14.676,60.561,13.747z"/>
	<path fill="#809097" d="M62.232,15.875v-0.54l0.689-0.67c1.659-1.579,2.408-2.418,2.418-3.398c0-0.66-0.319-1.27-1.289-1.27
		c-0.59,0-1.079,0.3-1.379,0.55l-0.28-0.62c0.45-0.38,1.09-0.66,1.839-0.66c1.399,0,1.989,0.959,1.989,1.889
		c0,1.199-0.869,2.168-2.238,3.488l-0.521,0.48v0.02h2.919v0.729H62.232z"/>
	<path fill="#809097" d="M69.681,12.847v0.649h-2.469v-0.649H69.681z"/>
	<path fill="#809097" d="M70.941,15.256c0.189,0.02,0.409,0,0.709-0.03c0.51-0.07,0.989-0.28,1.359-0.63
		c0.43-0.39,0.739-0.959,0.859-1.729h-0.03c-0.359,0.44-0.879,0.7-1.528,0.7c-1.17,0-1.919-0.88-1.919-1.989
		c0-1.229,0.889-2.309,2.219-2.309c1.329,0,2.148,1.08,2.148,2.739c0,1.429-0.479,2.429-1.119,3.048
		c-0.5,0.49-1.189,0.79-1.89,0.869c-0.319,0.05-0.6,0.06-0.809,0.05V15.256z M71.261,11.518c0,0.81,0.489,1.379,1.249,1.379
		c0.59,0,1.05-0.29,1.279-0.68c0.05-0.08,0.08-0.18,0.08-0.32c0-1.109-0.409-1.958-1.329-1.958
		C71.79,9.939,71.261,10.599,71.261,11.518z"/>
	<path fill="#809097" d="M79.778,9.379v0.58l-2.828,5.917h-0.909l2.818-5.747v-0.02h-3.179v-0.73H79.778z"/>
	<path fill="#809097" d="M84.568,10.119H82.09l-0.25,1.669c0.15-0.02,0.29-0.04,0.53-0.04c0.5,0,0.999,0.11,1.399,0.35
		c0.51,0.29,0.93,0.85,0.93,1.669c0,1.27-1.01,2.219-2.419,2.219c-0.71,0-1.31-0.2-1.619-0.4l0.22-0.669
		c0.27,0.16,0.8,0.36,1.39,0.36c0.829,0,1.539-0.54,1.539-1.409c-0.011-0.84-0.57-1.439-1.869-1.439c-0.37,0-0.66,0.04-0.899,0.07
		l0.42-3.119h3.107V10.119z"/>
	<path fill="#809097" d="M85.821,15.875v-0.54l0.689-0.67c1.659-1.579,2.408-2.418,2.418-3.398c0-0.66-0.319-1.27-1.289-1.27
		c-0.59,0-1.079,0.3-1.379,0.55l-0.28-0.62c0.45-0.38,1.09-0.66,1.839-0.66c1.399,0,1.989,0.959,1.989,1.889
		c0,1.199-0.869,2.168-2.238,3.488l-0.521,0.48v0.02h2.919v0.729H85.821z"/>
</g>
</svg>
