<?xml version="1.0" encoding="utf-8"?>
<!-- Generator: Adobe Illustrator 16.0.0, SVG Export Plug-In . SVG Version: 6.00 Build 0)  -->
<!DOCTYPE svg PUBLIC "-//W3C//DTD SVG 1.1//EN" "http://www.w3.org/Graphics/SVG/1.1/DTD/svg11.dtd">
<svg version="1.1" id="Layer_1" xmlns="http://www.w3.org/2000/svg" xmlns:xlink="http://www.w3.org/1999/xlink" x="0px" y="0px"
	 width="110px" height="30px" viewBox="0 0 110 30" enable-background="new 0 0 110 30" xml:space="preserve">
<path fill="none" stroke="#809097" stroke-miterlimit="10" d="M12.206,18.458C9.355,15.731,9.254,11.21,11.98,8.36
	c2.728-2.852,7.249-2.953,10.099-0.227c2.851,2.728,2.953,7.249,0.226,10.1l-5.163,5.495L12.206,18.458z"/>
<circle fill="none" stroke="#809097" stroke-miterlimit="10" cx="17.143" cy="13.296" r="1.926"/>
<path fill="#FFFFFF" stroke="#809097" stroke-miterlimit="10" d="M40.706,17.469"/>
<g>
	<path fill="#809097" d="M32.646,12.489v-0.432l0.552-0.536c1.327-1.264,1.927-1.935,1.935-2.719c0-0.528-0.256-1.015-1.032-1.015
		c-0.472,0-0.863,0.24-1.104,0.439l-0.224-0.496c0.36-0.304,0.872-0.528,1.471-0.528c1.119,0,1.591,0.768,1.591,1.511
		c0,0.959-0.695,1.735-1.791,2.791l-0.416,0.384v0.016h2.334v0.583H32.646z"/>
	<path fill="#809097" d="M38.277,7.947h-0.016l-0.904,0.488l-0.136-0.536l1.135-0.608h0.6v5.197h-0.679V7.947z"/>
	<path fill="#809097" d="M47.403,9.738c0,1.855-1.127,2.838-2.503,2.838c-1.423,0-2.423-1.104-2.423-2.734
		c0-1.711,1.063-2.831,2.503-2.831C46.451,7.012,47.403,8.139,47.403,9.738z M43.221,9.826c0,1.151,0.624,2.183,1.719,2.183
		c1.104,0,1.727-1.016,1.727-2.239c0-1.071-0.56-2.19-1.719-2.19C43.796,7.58,43.221,8.643,43.221,9.826z"/>
	<path fill="#809097" d="M48.285,9.826c0-0.456-0.008-0.848-0.032-1.208h0.616l0.024,0.76h0.032c0.176-0.52,0.6-0.848,1.072-0.848
		c0.08,0,0.136,0.008,0.2,0.024v0.664c-0.072-0.016-0.144-0.024-0.24-0.024c-0.496,0-0.848,0.375-0.944,0.903
		c-0.016,0.096-0.032,0.208-0.032,0.328v2.063h-0.696V9.826z"/>
	<path fill="#809097" d="M51.716,7.532c0.008,0.24-0.168,0.432-0.448,0.432c-0.248,0-0.424-0.192-0.424-0.432
		c0-0.248,0.184-0.44,0.44-0.44C51.548,7.092,51.716,7.284,51.716,7.532z M50.933,12.489v-3.87h0.704v3.87H50.933z"/>
	<path fill="#809097" d="M52.805,9.667c0-0.4-0.008-0.728-0.032-1.048h0.624l0.04,0.64h0.016c0.192-0.368,0.64-0.728,1.279-0.728
		c0.536,0,1.367,0.32,1.367,1.647v2.311h-0.704v-2.231c0-0.624-0.232-1.143-0.896-1.143c-0.464,0-0.824,0.328-0.943,0.72
		c-0.032,0.088-0.048,0.208-0.048,0.328v2.327h-0.704V9.667z"/>
	<path fill="#809097" d="M60.587,6.812v4.677c0,0.344,0.008,0.736,0.032,1h-0.632l-0.032-0.672h-0.016
		c-0.216,0.432-0.688,0.76-1.319,0.76c-0.936,0-1.655-0.792-1.655-1.967c-0.008-1.287,0.792-2.079,1.735-2.079
		c0.591,0,0.991,0.28,1.167,0.592h0.016V6.812H60.587z M59.883,10.194c0-0.088-0.008-0.208-0.032-0.296
		c-0.104-0.447-0.488-0.815-1.016-0.815c-0.728,0-1.159,0.64-1.159,1.495c0,0.784,0.384,1.432,1.143,1.432
		c0.472,0,0.904-0.312,1.032-0.84c0.024-0.096,0.032-0.192,0.032-0.304V10.194z"/>
	<path fill="#809097" d="M63.9,12.489l-0.056-0.488H63.82c-0.216,0.304-0.632,0.576-1.183,0.576c-0.784,0-1.184-0.552-1.184-1.111
		c0-0.936,0.832-1.447,2.327-1.439v-0.08c0-0.32-0.088-0.896-0.879-0.896c-0.36,0-0.736,0.112-1.007,0.288l-0.16-0.464
		c0.32-0.208,0.784-0.344,1.271-0.344c1.183,0,1.471,0.808,1.471,1.583v1.447c0,0.336,0.016,0.664,0.064,0.928H63.9z M63.796,10.514
		c-0.768-0.016-1.639,0.12-1.639,0.872c0,0.456,0.304,0.672,0.664,0.672c0.504,0,0.824-0.32,0.936-0.648
		c0.024-0.072,0.04-0.152,0.04-0.224V10.514z"/>
	<path fill="#809097" d="M67.924,12.489L66.557,7.1h0.735l0.64,2.727c0.16,0.672,0.304,1.343,0.4,1.863h0.016
		c0.088-0.536,0.256-1.175,0.439-1.871l0.72-2.719h0.728l0.656,2.735c0.152,0.64,0.296,1.279,0.375,1.847h0.016
		c0.112-0.592,0.264-1.191,0.432-1.863L72.426,7.1h0.711l-1.527,5.389h-0.728l-0.679-2.807c-0.168-0.688-0.28-1.215-0.352-1.759
		h-0.016c-0.096,0.536-0.216,1.063-0.416,1.759l-0.768,2.807H67.924z"/>
	<path fill="#809097" d="M75.667,12.489l-0.056-0.488h-0.024c-0.216,0.304-0.632,0.576-1.183,0.576
		c-0.784,0-1.184-0.552-1.184-1.111c0-0.936,0.832-1.447,2.327-1.439v-0.08c0-0.32-0.088-0.896-0.879-0.896
		c-0.36,0-0.736,0.112-1.007,0.288L73.5,8.875c0.32-0.208,0.784-0.344,1.271-0.344c1.183,0,1.471,0.808,1.471,1.583v1.447
		c0,0.336,0.016,0.664,0.064,0.928H75.667z M75.563,10.514c-0.768-0.016-1.639,0.12-1.639,0.872c0,0.456,0.304,0.672,0.664,0.672
		c0.504,0,0.824-0.32,0.936-0.648c0.024-0.072,0.04-0.152,0.04-0.224V10.514z"/>
	<path fill="#809097" d="M77.572,8.619l0.848,2.287c0.088,0.256,0.184,0.56,0.248,0.792h0.016c0.072-0.232,0.152-0.528,0.248-0.808
		l0.768-2.271h0.744l-1.056,2.759c-0.503,1.327-0.847,2.007-1.327,2.423c-0.344,0.304-0.688,0.423-0.863,0.456l-0.176-0.592
		c0.176-0.056,0.408-0.168,0.615-0.344c0.192-0.152,0.432-0.424,0.592-0.784c0.032-0.072,0.056-0.128,0.056-0.168
		s-0.016-0.096-0.048-0.184l-1.431-3.566H77.572z"/>
	<path fill="#809097" d="M80.317,13.472c0.176-0.472,0.392-1.327,0.479-1.911l0.784-0.08c-0.184,0.68-0.536,1.567-0.759,1.943
		L80.317,13.472z"/>
	<path fill="#809097" d="M84.285,12.489l0.208-1.567h-0.656V10.45h0.728l0.152-1.159h-0.688V8.819h0.76l0.208-1.527h0.464
		l-0.2,1.527h0.832l0.208-1.527h0.472l-0.2,1.527h0.656v0.472H86.5l-0.144,1.159h0.688v0.472h-0.759l-0.208,1.567h-0.48l0.208-1.567
		h-0.832l-0.208,1.567H84.285z M85.875,10.45l0.152-1.159h-0.832l-0.152,1.159H85.875z"/>
	<path fill="#809097" d="M90.979,7.883h-1.983l-0.2,1.335c0.12-0.016,0.232-0.032,0.424-0.032c0.4,0,0.799,0.088,1.119,0.28
		c0.408,0.232,0.744,0.68,0.744,1.335c0,1.015-0.808,1.775-1.935,1.775c-0.567,0-1.047-0.16-1.295-0.32l0.176-0.536
		c0.216,0.128,0.64,0.288,1.111,0.288c0.664,0,1.231-0.432,1.231-1.127c-0.008-0.672-0.456-1.151-1.495-1.151
		c-0.296,0-0.528,0.032-0.72,0.056l0.336-2.495h2.486V7.883z"/>
	<path fill="#809097" d="M95.435,9.834c0,1.767-0.656,2.742-1.807,2.742c-1.016,0-1.703-0.951-1.719-2.67
		c0-1.743,0.751-2.703,1.807-2.703C94.811,7.204,95.435,8.179,95.435,9.834z M92.612,9.914c0,1.352,0.416,2.119,1.056,2.119
		c0.72,0,1.063-0.84,1.063-2.167c0-1.279-0.328-2.119-1.056-2.119C93.06,7.748,92.612,8.499,92.612,9.914z"/>
	<path fill="#809097" d="M99.187,7.883h-1.983l-0.2,1.335c0.12-0.016,0.232-0.032,0.424-0.032c0.4,0,0.799,0.088,1.119,0.28
		c0.408,0.232,0.744,0.68,0.744,1.335c0,1.015-0.808,1.775-1.935,1.775c-0.568,0-1.048-0.16-1.295-0.32l0.176-0.536
		c0.216,0.128,0.64,0.288,1.111,0.288c0.664,0,1.231-0.432,1.231-1.127c-0.008-0.672-0.456-1.151-1.495-1.151
		c-0.296,0-0.528,0.032-0.72,0.056L96.7,7.292h2.486V7.883z"/>
	<path fill="#809097" d="M37.499,19.338c0,1.855-1.127,2.838-2.502,2.838c-1.423,0-2.422-1.104-2.422-2.734
		c0-1.711,1.063-2.831,2.502-2.831C36.547,16.612,37.499,17.739,37.499,19.338z M33.317,19.426c0,1.151,0.624,2.183,1.719,2.183
		c1.104,0,1.727-1.015,1.727-2.238c0-1.072-0.56-2.191-1.719-2.191C33.893,17.18,33.317,18.243,33.317,19.426z"/>
	<path fill="#809097" d="M38.381,19.426c0-0.456-0.008-0.848-0.032-1.207h0.616l0.024,0.759h0.032c0.176-0.52,0.6-0.848,1.072-0.848
		c0.08,0,0.136,0.008,0.2,0.024v0.664c-0.072-0.016-0.144-0.024-0.24-0.024c-0.496,0-0.848,0.376-0.943,0.904
		c-0.016,0.096-0.032,0.208-0.032,0.328v2.063h-0.696V19.426z"/>
	<path fill="#809097" d="M41.813,17.131c0.008,0.24-0.168,0.432-0.448,0.432c-0.248,0-0.424-0.192-0.424-0.432
		c0-0.248,0.184-0.439,0.44-0.439C41.645,16.692,41.813,16.884,41.813,17.131z M41.029,22.089v-3.87h0.704v3.87H41.029z"/>
	<path fill="#809097" d="M42.901,19.267c0-0.4-0.008-0.728-0.032-1.047h0.624l0.04,0.64h0.016c0.192-0.368,0.64-0.728,1.279-0.728
		c0.536,0,1.367,0.32,1.367,1.647v2.311h-0.704v-2.231c0-0.624-0.232-1.143-0.896-1.143c-0.464,0-0.824,0.328-0.943,0.719
		c-0.032,0.088-0.048,0.208-0.048,0.328v2.327h-0.704V19.267z"/>
	<path fill="#809097" d="M50.683,16.412v4.677c0,0.344,0.008,0.736,0.032,1h-0.632l-0.032-0.671h-0.016
		c-0.216,0.432-0.688,0.759-1.319,0.759c-0.936,0-1.655-0.792-1.655-1.967c-0.008-1.288,0.792-2.079,1.735-2.079
		c0.591,0,0.991,0.28,1.167,0.592h0.016v-2.311H50.683z M49.979,19.794c0-0.088-0.008-0.208-0.032-0.295
		c-0.104-0.448-0.488-0.816-1.016-0.816c-0.728,0-1.159,0.64-1.159,1.495c0,0.784,0.384,1.431,1.143,1.431
		c0.472,0,0.904-0.312,1.032-0.839c0.024-0.096,0.032-0.192,0.032-0.304V19.794z"/>
	<path fill="#809097" d="M53.996,22.089l-0.056-0.488h-0.024c-0.216,0.304-0.631,0.576-1.183,0.576
		c-0.784,0-1.184-0.552-1.184-1.111c0-0.936,0.832-1.447,2.327-1.439v-0.08c0-0.32-0.088-0.896-0.879-0.896
		c-0.36,0-0.735,0.112-1.007,0.288l-0.16-0.463c0.32-0.208,0.784-0.344,1.271-0.344c1.183,0,1.471,0.808,1.471,1.583v1.447
		c0,0.335,0.016,0.664,0.064,0.927H53.996z M53.892,20.114c-0.768-0.016-1.639,0.12-1.639,0.872c0,0.456,0.304,0.672,0.664,0.672
		c0.504,0,0.824-0.32,0.936-0.648c0.024-0.072,0.04-0.152,0.04-0.224V20.114z"/>
	<path fill="#809097" d="M55.253,23.072c0.176-0.472,0.392-1.327,0.479-1.911l0.784-0.08c-0.184,0.68-0.536,1.567-0.759,1.943
		L55.253,23.072z"/>
	<path fill="#809097" d="M62.851,21.913c-0.256,0.128-0.768,0.256-1.423,0.256c-1.519,0-2.662-0.959-2.662-2.727
		c0-1.687,1.143-2.831,2.814-2.831c0.671,0,1.095,0.144,1.279,0.24l-0.168,0.568c-0.264-0.128-0.64-0.224-1.087-0.224
		c-1.264,0-2.103,0.807-2.103,2.223c0,1.319,0.76,2.167,2.071,2.167c0.424,0,0.855-0.088,1.135-0.224L62.851,21.913z"/>
	<path fill="#809097" d="M64.628,20.394l-0.56,1.695h-0.72L65.18,16.7h0.84l1.839,5.389h-0.744l-0.576-1.695H64.628z M66.395,19.85
		l-0.527-1.551c-0.12-0.352-0.2-0.671-0.28-0.983h-0.016c-0.08,0.32-0.168,0.648-0.272,0.976l-0.528,1.559H66.395z"/>
	<path fill="#809097" d="M70.508,21.593c0.152,0.016,0.328,0,0.568-0.024c0.408-0.056,0.792-0.224,1.087-0.504
		c0.344-0.312,0.591-0.768,0.688-1.383h-0.024c-0.288,0.352-0.704,0.56-1.224,0.56c-0.935,0-1.535-0.704-1.535-1.591
		c0-0.983,0.712-1.847,1.775-1.847c1.063,0,1.719,0.864,1.719,2.191c0,1.144-0.384,1.943-0.896,2.438
		c-0.4,0.392-0.951,0.632-1.511,0.696c-0.256,0.04-0.479,0.048-0.647,0.04V21.593z M70.764,18.603c0,0.647,0.392,1.103,1,1.103
		c0.472,0,0.839-0.232,1.023-0.543c0.04-0.064,0.064-0.144,0.064-0.256c0-0.888-0.328-1.567-1.063-1.567
		C71.188,17.339,70.764,17.867,70.764,18.603z"/>
	<path fill="#809097" d="M76.379,22.089v-1.415h-2.415V20.21l2.318-3.318h0.76v3.23h0.728v0.552h-0.728v1.415H76.379z
		 M76.379,20.122v-1.735c0-0.271,0.008-0.543,0.024-0.815h-0.024c-0.16,0.304-0.288,0.528-0.432,0.768l-1.271,1.767v0.016H76.379z"
		/>
	<path fill="#809097" d="M81.411,17.483h-1.983l-0.2,1.335c0.12-0.016,0.232-0.032,0.424-0.032c0.4,0,0.799,0.088,1.119,0.28
		c0.408,0.232,0.744,0.68,0.744,1.335c0,1.016-0.808,1.775-1.935,1.775c-0.567,0-1.047-0.16-1.295-0.32l0.176-0.536
		c0.216,0.128,0.64,0.288,1.111,0.288c0.664,0,1.231-0.432,1.231-1.127c-0.008-0.672-0.456-1.151-1.495-1.151
		c-0.296,0-0.528,0.032-0.72,0.056l0.336-2.495h2.486V17.483z"/>
	<path fill="#809097" d="M85.379,17.387c-0.144-0.008-0.328,0-0.528,0.032c-1.104,0.184-1.687,0.991-1.807,1.847h0.024
		c0.248-0.328,0.679-0.6,1.255-0.6c0.919,0,1.567,0.664,1.567,1.679c0,0.952-0.647,1.831-1.727,1.831
		c-1.111,0-1.839-0.863-1.839-2.215c0-1.023,0.368-1.831,0.879-2.343c0.432-0.423,1.007-0.688,1.663-0.768
		c0.208-0.032,0.384-0.04,0.512-0.04V17.387z M85.179,20.386c0-0.744-0.424-1.191-1.072-1.191c-0.423,0-0.815,0.264-1.007,0.64
		c-0.048,0.08-0.08,0.184-0.08,0.312c0.016,0.855,0.408,1.487,1.144,1.487C84.771,21.633,85.179,21.129,85.179,20.386z"/>
	<path fill="#809097" d="M86.685,21.281c0.2,0.128,0.664,0.328,1.151,0.328c0.903,0,1.183-0.575,1.175-1.007
		c-0.008-0.728-0.664-1.04-1.343-1.04h-0.392v-0.527h0.392c0.512,0,1.159-0.264,1.159-0.88c0-0.416-0.264-0.783-0.912-0.783
		c-0.416,0-0.815,0.184-1.039,0.344l-0.184-0.512c0.272-0.2,0.8-0.4,1.359-0.4c1.023,0,1.487,0.608,1.487,1.239
		c0,0.536-0.32,0.992-0.959,1.224v0.016c0.64,0.128,1.159,0.608,1.159,1.335c0,0.832-0.647,1.559-1.895,1.559
		c-0.583,0-1.095-0.184-1.351-0.352L86.685,21.281z"/>
</g>
</svg>
