<?xml version="1.0" encoding="utf-8"?>
<!-- Generator: Adobe Illustrator 16.0.0, SVG Export Plug-In . SVG Version: 6.00 Build 0)  -->
<!DOCTYPE svg PUBLIC "-//W3C//DTD SVG 1.1//EN" "http://www.w3.org/Graphics/SVG/1.1/DTD/svg11.dtd">
<svg version="1.1" id="Layer_1" xmlns="http://www.w3.org/2000/svg" xmlns:xlink="http://www.w3.org/1999/xlink" x="0px" y="0px"
	 width="91px" height="25px" viewBox="0 0 91 25" enable-background="new 0 0 91 25" xml:space="preserve">
<g>
	<path fill="#070808" d="M4.213,15.899c0.4-0.03,0.75-0.14,0.959-0.37c0.24-0.279,0.33-0.659,0.33-1.819V9.663h0.88v4.387
		c0,0.939-0.149,1.55-0.58,1.989c-0.39,0.39-1.029,0.55-1.499,0.55L4.213,15.899z M6.481,8.304c0.011,0.289-0.2,0.539-0.55,0.539
		c-0.33,0-0.539-0.25-0.539-0.539c0-0.311,0.229-0.55,0.559-0.55C6.271,7.754,6.481,7.993,6.481,8.304z"/>
	<path fill="#070808" d="M12.2,12.041c0,1.789-1.239,2.569-2.409,2.569c-1.309,0-2.318-0.96-2.318-2.489
		c0-1.619,1.059-2.568,2.398-2.568C11.26,9.553,12.2,10.563,12.2,12.041z M8.362,12.092c0,1.059,0.609,1.858,1.469,1.858
		c0.84,0,1.47-0.789,1.47-1.879c0-0.819-0.41-1.859-1.449-1.859S8.362,11.172,8.362,12.092z"/>
	<path fill="#070808" d="M13.313,7.404h0.879v3.018h0.02c0.141-0.249,0.36-0.47,0.631-0.619c0.26-0.15,0.569-0.25,0.898-0.25
		c0.65,0,1.689,0.399,1.689,2.068V14.5h-0.879v-2.778c0-0.779-0.291-1.439-1.119-1.439c-0.57,0-1.02,0.399-1.18,0.88
		c-0.051,0.12-0.061,0.25-0.061,0.42V14.5h-0.879V7.404z"/>
	<path fill="#070808" d="M18.861,10.972c0-0.499-0.01-0.909-0.039-1.309h0.779l0.05,0.799h0.021
		c0.239-0.459,0.799-0.909,1.599-0.909c0.67,0,1.709,0.399,1.709,2.059V14.5H22.1v-2.788c0-0.78-0.289-1.43-1.119-1.43
		c-0.58,0-1.029,0.41-1.18,0.899c-0.039,0.11-0.06,0.26-0.06,0.41V14.5h-0.88V10.972z"/>
	<path fill="#070808" d="M28.92,15.14c-0.551,0.29-1.109,0.399-1.779,0.399c-1.64,0-3.029-1.199-3.029-3.118
		c0-2.059,1.43-3.838,3.648-3.838c1.739,0,2.908,1.22,2.908,2.889c0,1.499-0.84,2.379-1.779,2.379c-0.399,0-0.77-0.271-0.738-0.88
		h-0.041c-0.35,0.59-0.809,0.88-1.408,0.88c-0.58,0-1.08-0.47-1.08-1.26c0-1.239,0.979-2.368,2.369-2.368
		c0.43,0,0.809,0.09,1.068,0.21l-0.34,1.809c-0.149,0.76-0.029,1.109,0.301,1.119c0.51,0.011,1.079-0.669,1.079-1.829
		c0-1.449-0.87-2.488-2.419-2.488c-1.629,0-2.998,1.289-2.998,3.318c0,1.669,1.09,2.698,2.568,2.698c0.57,0,1.1-0.12,1.51-0.35
		L28.92,15.14z M28.369,10.822c-0.1-0.03-0.27-0.07-0.5-0.07c-0.879,0-1.588,0.83-1.588,1.799c0,0.44,0.219,0.76,0.659,0.76
		c0.579,0,1.109-0.739,1.22-1.359L28.369,10.822z"/>
	<path fill="#070808" d="M31.662,13.601c0.26,0.17,0.719,0.35,1.159,0.35c0.64,0,0.939-0.319,0.939-0.72
		c0-0.42-0.25-0.649-0.899-0.89c-0.869-0.31-1.279-0.789-1.279-1.369c0-0.779,0.629-1.419,1.669-1.419c0.489,0,0.919,0.14,1.189,0.3
		l-0.22,0.64c-0.189-0.12-0.54-0.28-0.99-0.28c-0.52,0-0.809,0.3-0.809,0.66c0,0.399,0.289,0.58,0.919,0.819
		c0.84,0.32,1.27,0.739,1.27,1.459c0,0.85-0.659,1.449-1.81,1.449c-0.529,0-1.02-0.13-1.359-0.329L31.662,13.601z"/>
	<path fill="#070808" d="M38.42,14.5l-0.069-0.609h-0.03c-0.27,0.38-0.789,0.72-1.479,0.72c-0.98,0-1.48-0.69-1.48-1.39
		c0-1.169,1.04-1.809,2.909-1.799v-0.101c0-0.399-0.11-1.119-1.1-1.119c-0.45,0-0.919,0.14-1.259,0.36l-0.2-0.58
		c0.399-0.26,0.979-0.43,1.589-0.43c1.479,0,1.84,1.01,1.84,1.979v1.81c0,0.42,0.02,0.829,0.079,1.159H38.42z M38.291,12.031
		c-0.96-0.02-2.049,0.15-2.049,1.09c0,0.569,0.379,0.839,0.829,0.839c0.63,0,1.029-0.399,1.169-0.81
		c0.03-0.09,0.051-0.189,0.051-0.279V12.031z"/>
	<path fill="#070808" d="M40.822,9.663l0.949,2.718c0.16,0.44,0.289,0.84,0.39,1.239h0.03c0.109-0.399,0.25-0.799,0.41-1.239
		l0.939-2.718h0.919L42.561,14.5h-0.84l-1.838-4.837H40.822z"/>
	<path fill="#070808" d="M45.752,9.663l0.949,2.718c0.16,0.44,0.289,0.84,0.39,1.239h0.03c0.109-0.399,0.25-0.799,0.41-1.239
		l0.939-2.718h0.919L47.49,14.5h-0.84l-1.838-4.837H45.752z"/>
	<path fill="#070808" d="M50.661,9.663l1.06,2.858c0.109,0.319,0.23,0.699,0.31,0.989h0.021c0.09-0.29,0.189-0.66,0.31-1.01
		l0.96-2.838h0.93l-1.32,3.447c-0.629,1.659-1.059,2.509-1.658,3.028c-0.43,0.38-0.859,0.53-1.08,0.57l-0.22-0.74
		c0.22-0.069,0.51-0.209,0.77-0.43c0.239-0.189,0.54-0.529,0.739-0.979c0.041-0.09,0.07-0.159,0.07-0.21
		c0-0.05-0.02-0.119-0.061-0.229l-1.789-4.457H50.661z"/>
	<path fill="#070808" d="M56.031,8.304c0.01,0.3-0.211,0.539-0.561,0.539c-0.31,0-0.529-0.239-0.529-0.539
		c0-0.311,0.23-0.55,0.55-0.55C55.82,7.754,56.031,7.993,56.031,8.304z M55.051,14.5V9.663h0.88V14.5H55.051z"/>
	<path fill="#070808" d="M60.07,14.5L60,13.891h-0.03c-0.271,0.38-0.79,0.72-1.479,0.72c-0.979,0-1.479-0.69-1.479-1.39
		c0-1.169,1.039-1.809,2.908-1.799v-0.101c0-0.399-0.109-1.119-1.1-1.119c-0.449,0-0.92,0.14-1.26,0.36l-0.199-0.58
		c0.4-0.26,0.979-0.43,1.589-0.43c1.479,0,1.839,1.01,1.839,1.979v1.81c0,0.42,0.021,0.829,0.08,1.159H60.07z M59.939,12.031
		c-0.959-0.02-2.049,0.15-2.049,1.09c0,0.569,0.38,0.839,0.83,0.839c0.629,0,1.029-0.399,1.169-0.81
		c0.03-0.09,0.05-0.189,0.05-0.279V12.031z"/>
	<path fill="#070808" d="M62.211,11.242c0-0.62-0.02-1.12-0.039-1.579h0.789l0.04,0.829h0.021c0.359-0.59,0.93-0.939,1.719-0.939
		c1.17,0,2.049,0.989,2.049,2.459c0,1.738-1.06,2.599-2.199,2.599c-0.639,0-1.199-0.28-1.488-0.76h-0.021v2.628h-0.87V11.242z
		 M63.081,12.531c0,0.13,0.021,0.25,0.04,0.359c0.16,0.61,0.689,1.029,1.319,1.029c0.929,0,1.47-0.759,1.47-1.868
		c0-0.97-0.51-1.8-1.439-1.8c-0.6,0-1.16,0.43-1.33,1.09c-0.029,0.11-0.06,0.24-0.06,0.359V12.531z"/>
	<path fill="#070808" d="M67.451,13.98c0-0.37,0.25-0.63,0.6-0.63s0.59,0.26,0.59,0.63c0,0.359-0.23,0.63-0.6,0.63
		C67.691,14.61,67.451,14.34,67.451,13.98z"/>
	<path fill="#070808" d="M73.18,14.32c-0.23,0.12-0.74,0.279-1.39,0.279c-1.46,0-2.409-0.989-2.409-2.469
		c0-1.488,1.02-2.568,2.6-2.568c0.52,0,0.979,0.13,1.219,0.25L73,10.492c-0.211-0.12-0.541-0.229-1.02-0.229
		c-1.109,0-1.709,0.819-1.709,1.829c0,1.119,0.719,1.809,1.678,1.809c0.5,0,0.83-0.13,1.08-0.24L73.18,14.32z"/>
	<path fill="#070808" d="M78.529,12.041c0,1.789-1.24,2.569-2.409,2.569c-1.31,0-2.319-0.96-2.319-2.489
		c0-1.619,1.061-2.568,2.398-2.568C77.589,9.553,78.529,10.563,78.529,12.041z M74.691,12.092c0,1.059,0.609,1.858,1.469,1.858
		c0.84,0,1.469-0.789,1.469-1.879c0-0.819-0.41-1.859-1.449-1.859S74.691,11.172,74.691,12.092z"/>
	<path fill="#070808" d="M79.641,10.972c0-0.499-0.01-0.909-0.039-1.309h0.77l0.039,0.779h0.031c0.27-0.46,0.719-0.89,1.519-0.89
		c0.659,0,1.159,0.399,1.369,0.97h0.021c0.149-0.271,0.34-0.48,0.539-0.63c0.29-0.22,0.609-0.34,1.07-0.34
		c0.639,0,1.588,0.42,1.588,2.099V14.5h-0.859v-2.738c0-0.93-0.34-1.489-1.049-1.489c-0.5,0-0.89,0.37-1.039,0.8
		c-0.041,0.119-0.07,0.279-0.07,0.439V14.5H82.67v-2.898c0-0.77-0.34-1.329-1.01-1.329c-0.55,0-0.949,0.439-1.09,0.879
		c-0.05,0.131-0.069,0.28-0.069,0.431V14.5h-0.86V10.972z"/>
</g>
</svg>
