<?xml version="1.0" encoding="utf-8"?>
<!-- Generator: Adobe Illustrator 16.0.0, SVG Export Plug-In . SVG Version: 6.00 Build 0)  -->
<!DOCTYPE svg PUBLIC "-//W3C//DTD SVG 1.1//EN" "http://www.w3.org/Graphics/SVG/1.1/DTD/svg11.dtd">
<svg version="1.1" id="Layer_1" xmlns="http://www.w3.org/2000/svg" xmlns:xlink="http://www.w3.org/1999/xlink" x="0px" y="0px"
	 width="75px" height="25px" viewBox="0 0 75 25" enable-background="new 0 0 75 25" xml:space="preserve">
<path fill="#FFFFFF" stroke="#809097" stroke-miterlimit="10" d="M40.205,16.969"/>
<g>
	<path fill="#070808" d="M3.693,10.35V9.918l0.552-0.536C5.572,8.119,6.172,7.448,6.18,6.664c0-0.528-0.256-1.015-1.031-1.015
		c-0.472,0-0.863,0.24-1.104,0.439L3.821,5.593c0.36-0.304,0.872-0.528,1.472-0.528c1.119,0,1.59,0.768,1.59,1.511
		c0,0.959-0.695,1.735-1.791,2.791L4.677,9.75v0.016h2.335v0.583H3.693z"/>
	<path fill="#070808" d="M9.324,5.809H9.309L8.404,6.296L8.27,5.761l1.135-0.608h0.6v5.197h-0.68V5.809z"/>
	<path fill="#070808" d="M18.451,7.6c0,1.855-1.128,2.838-2.504,2.838c-1.423,0-2.422-1.104-2.422-2.734
		c0-1.711,1.063-2.831,2.502-2.831C17.499,4.873,18.451,6,18.451,7.6z M14.269,7.688c0,1.151,0.624,2.183,1.72,2.183
		c1.104,0,1.727-1.016,1.727-2.239c0-1.071-0.56-2.19-1.719-2.19C14.844,5.441,14.269,6.504,14.269,7.688z"/>
	<path fill="#070808" d="M19.332,7.688c0-0.456-0.008-0.848-0.031-1.208h0.615l0.024,0.76h0.032c0.176-0.52,0.6-0.848,1.071-0.848
		c0.079,0,0.136,0.008,0.2,0.024V7.08c-0.072-0.016-0.145-0.024-0.24-0.024c-0.496,0-0.848,0.375-0.943,0.903
		c-0.016,0.096-0.032,0.208-0.032,0.328v2.063h-0.696V7.688z"/>
	<path fill="#070808" d="M22.764,5.393c0.008,0.24-0.168,0.432-0.447,0.432c-0.248,0-0.424-0.192-0.424-0.432
		c0-0.248,0.184-0.44,0.439-0.44C22.596,4.953,22.764,5.145,22.764,5.393z M21.98,10.35V6.48h0.703v3.87H21.98z"/>
	<path fill="#070808" d="M23.853,7.528c0-0.4-0.008-0.728-0.032-1.048h0.624l0.04,0.64H24.5c0.192-0.368,0.641-0.728,1.279-0.728
		c0.536,0,1.367,0.32,1.367,1.647v2.311h-0.703V8.119c0-0.624-0.232-1.143-0.896-1.143c-0.464,0-0.823,0.328-0.943,0.72
		c-0.032,0.088-0.048,0.208-0.048,0.328v2.327h-0.704V7.528z"/>
	<path fill="#070808" d="M31.635,4.673v4.677c0,0.344,0.008,0.736,0.032,1h-0.632l-0.031-0.672h-0.017
		c-0.216,0.432-0.688,0.76-1.319,0.76c-0.936,0-1.655-0.792-1.655-1.967c-0.008-1.287,0.792-2.079,1.735-2.079
		c0.592,0,0.991,0.28,1.167,0.592h0.017V4.673H31.635z M30.932,8.055c0-0.088-0.008-0.208-0.032-0.296
		c-0.104-0.447-0.487-0.815-1.016-0.815c-0.728,0-1.159,0.64-1.159,1.495c0,0.784,0.384,1.432,1.143,1.432
		c0.473,0,0.904-0.312,1.032-0.84c0.024-0.096,0.032-0.192,0.032-0.304V8.055z"/>
	<path fill="#070808" d="M34.947,10.35l-0.056-0.488h-0.024c-0.215,0.304-0.631,0.576-1.183,0.576c-0.784,0-1.184-0.552-1.184-1.111
		c0-0.936,0.831-1.447,2.327-1.439v-0.08c0-0.32-0.088-0.896-0.88-0.896c-0.36,0-0.735,0.112-1.007,0.288l-0.16-0.464
		c0.319-0.208,0.783-0.344,1.271-0.344c1.183,0,1.471,0.808,1.471,1.583v1.447c0,0.336,0.016,0.664,0.064,0.928H34.947z
		 M34.844,8.375c-0.768-0.016-1.639,0.12-1.639,0.872c0,0.456,0.303,0.672,0.663,0.672c0.504,0,0.823-0.32,0.936-0.648
		c0.024-0.072,0.04-0.152,0.04-0.224V8.375z"/>
	<path fill="#070808" d="M38.973,10.35l-1.367-5.389h0.734l0.641,2.727c0.16,0.672,0.303,1.343,0.399,1.863h0.017
		c0.088-0.536,0.256-1.175,0.439-1.871l0.719-2.719h0.729l0.655,2.735c0.151,0.64,0.296,1.279,0.376,1.847h0.016
		c0.111-0.592,0.264-1.191,0.432-1.863l0.712-2.719h0.712l-1.527,5.389H41.93l-0.679-2.807c-0.168-0.688-0.28-1.215-0.353-1.759
		h-0.016c-0.096,0.536-0.216,1.063-0.416,1.759l-0.768,2.807H38.973z"/>
	<path fill="#070808" d="M46.715,10.35l-0.056-0.488h-0.024c-0.215,0.304-0.631,0.576-1.183,0.576c-0.784,0-1.184-0.552-1.184-1.111
		c0-0.936,0.831-1.447,2.327-1.439v-0.08c0-0.32-0.088-0.896-0.88-0.896c-0.36,0-0.735,0.112-1.007,0.288l-0.16-0.464
		c0.319-0.208,0.783-0.344,1.271-0.344c1.183,0,1.471,0.808,1.471,1.583v1.447c0,0.336,0.016,0.664,0.064,0.928H46.715z
		 M46.611,8.375c-0.768-0.016-1.639,0.12-1.639,0.872c0,0.456,0.303,0.672,0.663,0.672c0.504,0,0.823-0.32,0.936-0.648
		c0.024-0.072,0.04-0.152,0.04-0.224V8.375z"/>
	<path fill="#070808" d="M48.62,6.48l0.848,2.287c0.088,0.256,0.185,0.56,0.248,0.792h0.017c0.071-0.232,0.151-0.528,0.247-0.808
		l0.768-2.271h0.743l-1.055,2.759c-0.504,1.327-0.848,2.007-1.328,2.423c-0.344,0.304-0.688,0.423-0.863,0.456l-0.176-0.592
		c0.176-0.056,0.408-0.168,0.615-0.344c0.192-0.152,0.433-0.424,0.592-0.784c0.033-0.072,0.057-0.128,0.057-0.168
		s-0.016-0.096-0.049-0.184L47.853,6.48H48.62z"/>
	<path fill="#070808" d="M51.365,11.333c0.176-0.472,0.391-1.327,0.479-1.911l0.784-0.08c-0.184,0.68-0.536,1.567-0.759,1.943
		L51.365,11.333z"/>
	<path fill="#070808" d="M55.332,10.35l0.209-1.567h-0.656V8.311h0.728l0.151-1.159h-0.688V6.68h0.76l0.208-1.527h0.464L56.309,6.68
		h0.831l0.208-1.527h0.471L57.619,6.68h0.656v0.472h-0.729l-0.144,1.159h0.688v0.472h-0.759l-0.209,1.567h-0.479l0.208-1.567H56.02
		l-0.207,1.567H55.332z M56.924,8.311l0.152-1.159h-0.832l-0.152,1.159H56.924z"/>
	<path fill="#070808" d="M62.027,5.745h-1.983l-0.2,1.335c0.121-0.016,0.232-0.032,0.424-0.032c0.4,0,0.8,0.088,1.119,0.28
		c0.408,0.232,0.744,0.68,0.744,1.335c0,1.015-0.808,1.775-1.936,1.775c-0.566,0-1.047-0.16-1.295-0.32l0.176-0.536
		c0.217,0.128,0.641,0.288,1.111,0.288c0.664,0,1.232-0.432,1.232-1.127c-0.008-0.672-0.457-1.151-1.496-1.151
		c-0.295,0-0.527,0.032-0.719,0.056l0.336-2.495h2.486V5.745z"/>
	<path fill="#070808" d="M66.482,7.696c0,1.767-0.656,2.742-1.807,2.742c-1.016,0-1.703-0.951-1.719-2.67
		c0-1.743,0.751-2.703,1.807-2.703C65.859,5.065,66.482,6.041,66.482,7.696z M63.66,7.775c0,1.352,0.416,2.119,1.055,2.119
		c0.721,0,1.064-0.84,1.064-2.167c0-1.279-0.328-2.119-1.057-2.119C64.107,5.609,63.66,6.36,63.66,7.775z"/>
	<path fill="#070808" d="M70.234,5.745h-1.982l-0.2,1.335c0.12-0.016,0.231-0.032,0.424-0.032c0.399,0,0.8,0.088,1.119,0.28
		c0.407,0.232,0.743,0.68,0.743,1.335c0,1.015-0.807,1.775-1.934,1.775c-0.568,0-1.049-0.16-1.296-0.32l0.176-0.536
		c0.216,0.128,0.64,0.288,1.111,0.288c0.663,0,1.231-0.432,1.231-1.127c-0.008-0.672-0.455-1.151-1.495-1.151
		c-0.296,0-0.528,0.032-0.72,0.056l0.336-2.495h2.486V5.745z"/>
	<path fill="#070808" d="M8.547,17.2c0,1.855-1.127,2.838-2.503,2.838c-1.423,0-2.423-1.104-2.423-2.734
		c0-1.711,1.063-2.831,2.503-2.831C7.596,14.473,8.547,15.601,8.547,17.2z M4.365,17.288c0,1.151,0.623,2.183,1.719,2.183
		c1.104,0,1.727-1.015,1.727-2.238c0-1.072-0.559-2.191-1.719-2.191C4.94,15.041,4.365,16.104,4.365,17.288z"/>
	<path fill="#070808" d="M9.429,17.288c0-0.456-0.008-0.848-0.032-1.207h0.616l0.024,0.759h0.031c0.176-0.52,0.6-0.848,1.072-0.848
		c0.079,0,0.135,0.008,0.199,0.024v0.664c-0.072-0.016-0.145-0.024-0.24-0.024c-0.496,0-0.848,0.376-0.943,0.904
		c-0.016,0.096-0.031,0.208-0.031,0.328v2.063H9.429V17.288z"/>
	<path fill="#070808" d="M12.861,14.993c0.008,0.24-0.168,0.432-0.448,0.432c-0.247,0-0.424-0.192-0.424-0.432
		c0-0.248,0.185-0.439,0.44-0.439C12.693,14.553,12.861,14.745,12.861,14.993z M12.077,19.95v-3.87h0.704v3.87H12.077z"/>
	<path fill="#070808" d="M13.949,17.128c0-0.4-0.008-0.728-0.032-1.047h0.624l0.039,0.64h0.017c0.192-0.368,0.64-0.728,1.279-0.728
		c0.536,0,1.367,0.32,1.367,1.647v2.311h-0.704v-2.231c0-0.624-0.231-1.143-0.895-1.143c-0.465,0-0.824,0.328-0.943,0.719
		c-0.033,0.088-0.049,0.208-0.049,0.328v2.327h-0.703V17.128z"/>
	<path fill="#070808" d="M21.73,14.273v4.677c0,0.344,0.008,0.736,0.033,1h-0.633L21.1,19.279h-0.016
		c-0.217,0.432-0.688,0.759-1.32,0.759c-0.936,0-1.654-0.792-1.654-1.967c-0.008-1.288,0.791-2.079,1.734-2.079
		c0.592,0,0.992,0.28,1.168,0.592h0.016v-2.311H21.73z M21.027,17.655c0-0.088-0.008-0.208-0.031-0.295
		c-0.104-0.448-0.488-0.816-1.016-0.816c-0.729,0-1.16,0.64-1.16,1.495c0,0.784,0.385,1.431,1.144,1.431
		c0.472,0,0.903-0.312,1.032-0.839c0.023-0.096,0.031-0.192,0.031-0.304V17.655z"/>
	<path fill="#070808" d="M25.044,19.95l-0.056-0.488h-0.024c-0.216,0.304-0.632,0.576-1.183,0.576c-0.784,0-1.184-0.552-1.184-1.111
		c0-0.936,0.831-1.447,2.326-1.439v-0.08c0-0.32-0.088-0.896-0.879-0.896c-0.36,0-0.736,0.112-1.008,0.288l-0.16-0.463
		c0.32-0.208,0.783-0.344,1.271-0.344c1.184,0,1.471,0.808,1.471,1.583v1.447c0,0.335,0.017,0.664,0.064,0.927H25.044z
		 M24.939,17.975c-0.768-0.016-1.639,0.12-1.639,0.872c0,0.456,0.304,0.672,0.664,0.672c0.504,0,0.823-0.32,0.936-0.648
		c0.023-0.072,0.039-0.152,0.039-0.224V17.975z"/>
	<path fill="#070808" d="M26.301,20.934c0.176-0.472,0.393-1.327,0.48-1.911l0.783-0.08c-0.184,0.68-0.535,1.567-0.76,1.943
		L26.301,20.934z"/>
	<path fill="#070808" d="M33.898,19.774c-0.256,0.128-0.768,0.256-1.424,0.256c-1.519,0-2.662-0.959-2.662-2.727
		c0-1.687,1.144-2.831,2.814-2.831c0.672,0,1.096,0.144,1.279,0.24l-0.168,0.568c-0.264-0.128-0.639-0.224-1.087-0.224
		c-1.264,0-2.103,0.807-2.103,2.223c0,1.319,0.76,2.167,2.07,2.167c0.424,0,0.855-0.088,1.135-0.224L33.898,19.774z"/>
	<path fill="#070808" d="M35.676,18.255l-0.56,1.695h-0.72l1.831-5.389h0.84l1.839,5.389h-0.744l-0.575-1.695H35.676z
		 M37.443,17.711l-0.527-1.551c-0.121-0.352-0.201-0.671-0.281-0.983h-0.016c-0.08,0.32-0.168,0.648-0.271,0.976l-0.527,1.559
		H37.443z"/>
	<path fill="#070808" d="M41.557,19.455c0.151,0.016,0.327,0,0.567-0.024c0.407-0.056,0.792-0.224,1.087-0.504
		c0.344-0.312,0.592-0.768,0.688-1.383h-0.023c-0.288,0.352-0.703,0.56-1.224,0.56c-0.935,0-1.535-0.704-1.535-1.591
		c0-0.983,0.712-1.847,1.775-1.847s1.719,0.864,1.719,2.191c0,1.144-0.384,1.943-0.896,2.438c-0.4,0.392-0.951,0.632-1.512,0.696
		c-0.256,0.04-0.479,0.048-0.646,0.04V19.455z M41.813,16.464c0,0.647,0.391,1.103,0.999,1.103c0.472,0,0.839-0.232,1.023-0.543
		c0.04-0.064,0.063-0.144,0.063-0.256c0-0.888-0.328-1.567-1.063-1.567C42.236,15.201,41.813,15.729,41.813,16.464z"/>
	<path fill="#070808" d="M47.428,19.95v-1.415h-2.415v-0.464l2.318-3.318h0.76v3.23h0.728v0.552h-0.728v1.415H47.428z
		 M47.428,17.983v-1.735c0-0.271,0.008-0.543,0.023-0.815h-0.023c-0.16,0.304-0.289,0.528-0.432,0.768l-1.271,1.767v0.016H47.428z"
		/>
	<path fill="#070808" d="M52.459,15.345h-1.983l-0.2,1.335c0.121-0.016,0.232-0.032,0.424-0.032c0.4,0,0.8,0.088,1.119,0.28
		c0.408,0.232,0.744,0.68,0.744,1.335c0,1.016-0.808,1.775-1.936,1.775c-0.566,0-1.047-0.16-1.295-0.32l0.176-0.536
		c0.217,0.128,0.641,0.288,1.111,0.288c0.664,0,1.232-0.432,1.232-1.127c-0.008-0.672-0.457-1.151-1.496-1.151
		c-0.295,0-0.527,0.032-0.719,0.056l0.336-2.495h2.486V15.345z"/>
	<path fill="#070808" d="M56.427,15.249c-0.144-0.008-0.327,0-0.528,0.032c-1.104,0.184-1.687,0.991-1.807,1.847h0.024
		c0.247-0.328,0.679-0.6,1.255-0.6c0.92,0,1.567,0.664,1.567,1.679c0,0.952-0.647,1.831-1.728,1.831
		c-1.111,0-1.838-0.863-1.838-2.215c0-1.023,0.367-1.831,0.879-2.343c0.432-0.423,1.008-0.688,1.663-0.768
		c0.208-0.032,0.384-0.04,0.512-0.04V15.249z M56.227,18.247c0-0.744-0.424-1.191-1.071-1.191c-0.423,0-0.815,0.264-1.007,0.64
		c-0.049,0.08-0.08,0.184-0.08,0.312c0.016,0.855,0.408,1.487,1.143,1.487C55.818,19.495,56.227,18.991,56.227,18.247z"/>
	<path fill="#070808" d="M57.732,19.143c0.199,0.128,0.664,0.328,1.151,0.328c0.903,0,1.183-0.575,1.175-1.007
		c-0.008-0.728-0.663-1.04-1.343-1.04h-0.392v-0.527h0.392c0.512,0,1.159-0.264,1.159-0.88c0-0.416-0.264-0.783-0.912-0.783
		c-0.415,0-0.814,0.184-1.039,0.344l-0.184-0.512c0.271-0.2,0.8-0.4,1.359-0.4c1.023,0,1.487,0.608,1.487,1.239
		c0,0.536-0.319,0.992-0.96,1.224v0.016c0.641,0.128,1.16,0.608,1.16,1.335c0,0.832-0.648,1.559-1.896,1.559
		c-0.583,0-1.095-0.184-1.351-0.352L57.732,19.143z"/>
</g>
</svg>
