<?xml version="1.0" encoding="utf-8"?>
<!-- Generator: Adobe Illustrator 16.0.0, SVG Export Plug-In . SVG Version: 6.00 Build 0)  -->
<!DOCTYPE svg PUBLIC "-//W3C//DTD SVG 1.1//EN" "http://www.w3.org/Graphics/SVG/1.1/DTD/svg11.dtd">
<svg version="1.1" id="Layer_1" xmlns="http://www.w3.org/2000/svg" xmlns:xlink="http://www.w3.org/1999/xlink" x="0px" y="0px"
	 width="100px" height="100px" viewBox="0 0 100 100" enable-background="new 0 0 100 100" xml:space="preserve">
<circle fill="#93A8B1" cx="51.469" cy="50" r="39.292"/>
<path fill="none" stroke="#F3F3F3" stroke-width="2" stroke-miterlimit="10" d="M58.469,29.607"/>
<path fill="none" stroke="#F3F3F3" stroke-width="2" stroke-miterlimit="10" d="M67.348,26.591"/>
<path fill="none" stroke="#F3F3F3" stroke-width="2" stroke-miterlimit="10" d="M67.348,26.591"/>
<path fill="none" stroke="#FFFFFF" stroke-width="2" stroke-miterlimit="10" d="M31.876,33.607v36c0,3.866,3.134,7,7,7h22"/>
<path fill="none" stroke="#FFFFFF" stroke-width="2" stroke-miterlimit="10" d="M35.876,65.607c0,3.866,3.134,7,7,7h22
	c3.865,0,7-3.134,7-7v-36c0-3.866-3.135-7-7-7h-22c-3.866,0-7,3.134-7,7V65.607z"/>
<path fill="none" stroke="#FFFFFF" stroke-width="2" stroke-miterlimit="10" d="M58.286,23.458v9.103
	c0,1.736,1.797,3.145,4.013,3.145h9.577"/>
<line fill="none" stroke="#F3F3F3" stroke-width="2" stroke-miterlimit="10" x1="58.911" y1="22.607" x2="71.876" y2="35.268"/>
<rect x="55.628" y="20.903" transform="matrix(0.7209 0.693 -0.693 0.7209 36.8031 -40.9197)" fill="#93A8B1" width="27.166" height="8.67"/>
</svg>
