<?xml version="1.0" encoding="utf-8"?>
<!-- Generator: Adobe Illustrator 16.0.0, SVG Export Plug-In . SVG Version: 6.00 Build 0)  -->
<!DOCTYPE svg PUBLIC "-//W3C//DTD SVG 1.1//EN" "http://www.w3.org/Graphics/SVG/1.1/DTD/svg11.dtd">
<svg version="1.1" id="Layer_1" xmlns="http://www.w3.org/2000/svg" xmlns:xlink="http://www.w3.org/1999/xlink" x="0px" y="0px"
	 width="125px" height="30px" viewBox="0 0 125 30" enable-background="new 0 0 125 30" xml:space="preserve">
<g>
	<g>
		<g>
			<path fill="none" stroke="#809097" stroke-miterlimit="10" d="M30.333,18.282c0,1.65-1.35,3-3,3h-18.5c-1.65,0-3-1.35-3-3v-9.5
				c0-1.65,1.35-3,3-3h18.5c1.65,0,3,1.35,3,3V18.282z"/>
		</g>
		<polyline fill="none" stroke="#809097" stroke-miterlimit="10" points="30.333,9.345 18.083,13.532 5.833,9.345 		"/>
	</g>
	<g>
		<path fill="#809097" d="M37.884,17.867c0.4-0.03,0.75-0.14,0.959-0.37c0.24-0.279,0.33-0.659,0.33-1.819v-4.047h0.88v4.387
			c0,0.939-0.15,1.55-0.58,1.989c-0.39,0.39-1.029,0.55-1.499,0.55L37.884,17.867z M40.152,10.271c0.01,0.289-0.2,0.539-0.549,0.539
			c-0.33,0-0.54-0.25-0.54-0.539c0-0.311,0.23-0.55,0.56-0.55C39.942,9.722,40.152,9.961,40.152,10.271z"/>
		<path fill="#809097" d="M45.871,14.009c0,1.789-1.24,2.569-2.409,2.569c-1.31,0-2.319-0.96-2.319-2.489
			c0-1.619,1.059-2.568,2.398-2.568C44.931,11.521,45.871,12.53,45.871,14.009z M42.033,14.06c0,1.059,0.609,1.858,1.469,1.858
			c0.84,0,1.469-0.789,1.469-1.879c0-0.819-0.41-1.859-1.449-1.859C42.483,12.18,42.033,13.14,42.033,14.06z"/>
		<path fill="#809097" d="M46.983,9.372h0.879v3.018h0.02c0.14-0.249,0.36-0.47,0.63-0.619c0.26-0.15,0.57-0.25,0.899-0.25
			c0.65,0,1.689,0.399,1.689,2.068v2.879h-0.879v-2.778c0-0.779-0.29-1.439-1.119-1.439c-0.57,0-1.02,0.399-1.18,0.88
			c-0.05,0.12-0.06,0.25-0.06,0.42v2.918h-0.879V9.372z"/>
		<path fill="#809097" d="M52.533,12.939c0-0.499-0.01-0.909-0.04-1.309h0.78l0.05,0.799h0.02c0.24-0.459,0.8-0.909,1.599-0.909
			c0.67,0,1.709,0.399,1.709,2.059v2.889h-0.879V13.68c0-0.78-0.29-1.43-1.119-1.43c-0.58,0-1.03,0.41-1.18,0.899
			c-0.04,0.11-0.06,0.26-0.06,0.41v2.908h-0.879V12.939z"/>
		<path fill="#809097" d="M62.59,17.107c-0.55,0.29-1.109,0.399-1.779,0.399c-1.639,0-3.028-1.199-3.028-3.118
			c0-2.059,1.429-3.838,3.648-3.838c1.739,0,2.909,1.22,2.909,2.889c0,1.499-0.84,2.379-1.779,2.379c-0.4,0-0.77-0.271-0.739-0.88
			h-0.04c-0.35,0.59-0.81,0.88-1.409,0.88c-0.58,0-1.08-0.47-1.08-1.26c0-1.239,0.979-2.368,2.369-2.368
			c0.43,0,0.81,0.09,1.069,0.21l-0.34,1.809c-0.15,0.76-0.03,1.109,0.3,1.119c0.51,0.011,1.08-0.669,1.08-1.829
			c0-1.449-0.87-2.488-2.418-2.488c-1.629,0-2.999,1.289-2.999,3.318c0,1.669,1.089,2.698,2.568,2.698c0.57,0,1.1-0.12,1.509-0.35
			L62.59,17.107z M62.041,12.79c-0.1-0.03-0.27-0.07-0.5-0.07c-0.879,0-1.589,0.83-1.589,1.799c0,0.44,0.22,0.76,0.66,0.76
			c0.58,0,1.109-0.739,1.219-1.359L62.041,12.79z"/>
		<path fill="#809097" d="M65.333,15.568c0.26,0.17,0.719,0.35,1.159,0.35c0.64,0,0.939-0.319,0.939-0.72
			c0-0.42-0.25-0.649-0.899-0.89c-0.87-0.31-1.279-0.789-1.279-1.369c0-0.779,0.629-1.419,1.669-1.419c0.49,0,0.919,0.14,1.189,0.3
			l-0.22,0.64c-0.19-0.12-0.54-0.28-0.99-0.28c-0.52,0-0.81,0.3-0.81,0.66c0,0.399,0.29,0.58,0.919,0.819
			c0.84,0.32,1.27,0.739,1.27,1.459c0,0.85-0.66,1.449-1.809,1.449c-0.53,0-1.02-0.13-1.359-0.329L65.333,15.568z"/>
		<path fill="#809097" d="M72.091,16.468l-0.07-0.609h-0.03c-0.27,0.38-0.79,0.72-1.479,0.72c-0.979,0-1.479-0.69-1.479-1.39
			c0-1.169,1.04-1.809,2.909-1.799v-0.101c0-0.399-0.11-1.119-1.1-1.119c-0.45,0-0.919,0.14-1.259,0.36l-0.2-0.58
			c0.4-0.26,0.979-0.43,1.589-0.43c1.479,0,1.839,1.01,1.839,1.979v1.81c0,0.42,0.02,0.829,0.08,1.159H72.091z M71.961,13.999
			c-0.959-0.02-2.049,0.15-2.049,1.09c0,0.569,0.379,0.839,0.83,0.839c0.629,0,1.029-0.399,1.169-0.81
			c0.03-0.09,0.05-0.189,0.05-0.279V13.999z"/>
		<path fill="#809097" d="M74.493,11.631l0.95,2.718c0.16,0.44,0.29,0.84,0.39,1.239h0.03c0.11-0.399,0.25-0.799,0.41-1.239
			l0.939-2.718h0.919l-1.899,4.837h-0.84l-1.839-4.837H74.493z"/>
		<path fill="#809097" d="M79.422,11.631l0.95,2.718c0.16,0.44,0.29,0.84,0.39,1.239h0.03c0.11-0.399,0.25-0.799,0.41-1.239
			l0.939-2.718h0.919l-1.899,4.837h-0.84l-1.839-4.837H79.422z"/>
		<path fill="#809097" d="M84.332,11.631l1.06,2.858c0.11,0.319,0.23,0.699,0.31,0.989h0.02c0.09-0.29,0.19-0.66,0.31-1.01
			l0.959-2.838h0.93l-1.319,3.447c-0.63,1.659-1.06,2.509-1.659,3.028c-0.43,0.38-0.859,0.53-1.08,0.57l-0.22-0.74
			c0.22-0.069,0.51-0.209,0.77-0.43c0.24-0.189,0.54-0.529,0.74-0.979c0.04-0.09,0.07-0.159,0.07-0.21c0-0.05-0.02-0.119-0.06-0.229
			l-1.789-4.457H84.332z"/>
		<path fill="#809097" d="M89.702,10.271c0.01,0.3-0.21,0.539-0.56,0.539c-0.31,0-0.53-0.239-0.53-0.539
			c0-0.311,0.23-0.55,0.55-0.55C89.492,9.722,89.702,9.961,89.702,10.271z M88.722,16.468v-4.837h0.879v4.837H88.722z"/>
		<path fill="#809097" d="M93.741,16.468l-0.07-0.609h-0.03c-0.27,0.38-0.79,0.72-1.479,0.72c-0.979,0-1.479-0.69-1.479-1.39
			c0-1.169,1.04-1.809,2.909-1.799v-0.101c0-0.399-0.11-1.119-1.1-1.119c-0.45,0-0.919,0.14-1.259,0.36l-0.2-0.58
			c0.4-0.26,0.979-0.43,1.589-0.43c1.479,0,1.839,1.01,1.839,1.979v1.81c0,0.42,0.02,0.829,0.08,1.159H93.741z M93.611,13.999
			c-0.959-0.02-2.049,0.15-2.049,1.09c0,0.569,0.379,0.839,0.83,0.839c0.629,0,1.029-0.399,1.169-0.81
			c0.03-0.09,0.05-0.189,0.05-0.279V13.999z"/>
		<path fill="#809097" d="M95.882,13.21c0-0.62-0.02-1.12-0.04-1.579h0.79l0.04,0.829h0.02c0.36-0.59,0.93-0.939,1.719-0.939
			c1.169,0,2.049,0.989,2.049,2.459c0,1.738-1.06,2.599-2.199,2.599c-0.64,0-1.199-0.28-1.489-0.76h-0.02v2.628h-0.87V13.21z
			 M96.752,14.499c0,0.13,0.02,0.25,0.04,0.359c0.16,0.61,0.689,1.029,1.319,1.029c0.929,0,1.469-0.759,1.469-1.868
			c0-0.97-0.51-1.8-1.439-1.8c-0.6,0-1.159,0.43-1.329,1.09c-0.03,0.11-0.06,0.24-0.06,0.359V14.499z"/>
		<path fill="#809097" d="M101.122,15.948c0-0.37,0.25-0.63,0.6-0.63c0.35,0,0.589,0.26,0.589,0.63c0,0.359-0.23,0.63-0.6,0.63
			C101.362,16.578,101.122,16.308,101.122,15.948z"/>
		<path fill="#809097" d="M106.85,16.288c-0.23,0.12-0.74,0.279-1.389,0.279c-1.459,0-2.409-0.989-2.409-2.469
			c0-1.488,1.02-2.568,2.599-2.568c0.52,0,0.979,0.13,1.219,0.25l-0.2,0.68c-0.21-0.12-0.54-0.229-1.02-0.229
			c-1.109,0-1.709,0.819-1.709,1.829c0,1.119,0.719,1.809,1.679,1.809c0.5,0,0.83-0.13,1.08-0.24L106.85,16.288z"/>
		<path fill="#809097" d="M112.2,14.009c0,1.789-1.24,2.569-2.409,2.569c-1.31,0-2.319-0.96-2.319-2.489
			c0-1.619,1.06-2.568,2.398-2.568C111.26,11.521,112.2,12.53,112.2,14.009z M108.362,14.06c0,1.059,0.609,1.858,1.469,1.858
			c0.84,0,1.469-0.789,1.469-1.879c0-0.819-0.41-1.859-1.449-1.859C108.812,12.18,108.362,13.14,108.362,14.06z"/>
		<path fill="#809097" d="M113.312,12.939c0-0.499-0.01-0.909-0.04-1.309h0.77l0.04,0.779h0.03c0.27-0.46,0.719-0.89,1.519-0.89
			c0.66,0,1.159,0.399,1.369,0.97h0.02c0.15-0.271,0.34-0.48,0.54-0.63c0.29-0.22,0.61-0.34,1.07-0.34
			c0.64,0,1.589,0.42,1.589,2.099v2.849h-0.859v-2.738c0-0.93-0.34-1.489-1.049-1.489c-0.5,0-0.89,0.37-1.04,0.8
			c-0.04,0.119-0.07,0.279-0.07,0.439v2.988h-0.86v-2.898c0-0.77-0.34-1.329-1.009-1.329c-0.55,0-0.95,0.439-1.089,0.879
			c-0.05,0.131-0.07,0.28-0.07,0.431v2.918h-0.86V12.939z"/>
	</g>
</g>
</svg>
