<?xml version="1.0" encoding="utf-8"?>
<!-- Generator: Adobe Illustrator 16.0.0, SVG Export Plug-In . SVG Version: 6.00 Build 0)  -->
<!DOCTYPE svg PUBLIC "-//W3C//DTD SVG 1.1//EN" "http://www.w3.org/Graphics/SVG/1.1/DTD/svg11.dtd">
<svg version="1.1" id="Layer_1" xmlns="http://www.w3.org/2000/svg" xmlns:xlink="http://www.w3.org/1999/xlink" x="0px" y="0px"
	 width="100px" height="50px" viewBox="0 0 100 50" enable-background="new 0 0 100 50" xml:space="preserve">
<g>
	<path fill="#2B3990" stroke="#2B3990" stroke-miterlimit="10" d="M3.043,30.814c0.467,0.354,0.989,0.674,1.555,0.955
		c0.564,0.281,1.146,0.518,1.739,0.709c0.592,0.191,1.192,0.334,1.787,0.434c0.601,0.098,1.174,0.148,1.722,0.148
		c2.125,0,3.716-0.414,4.771-1.242c1.052-0.827,1.58-2.016,1.58-3.566c0-0.748-0.121-1.401-0.367-1.959
		c-0.249-0.56-0.636-1.079-1.156-1.565c-0.521-0.487-1.181-0.968-1.974-1.448c-0.795-0.48-1.734-1.02-2.816-1.625
		c-1.2-0.656-2.225-1.277-3.077-1.861C5.95,19.209,5.254,18.612,4.715,18c-0.545-0.611-0.939-1.27-1.194-1.98
		c-0.253-0.709-0.381-1.516-0.381-2.422c0-1.142,0.243-2.168,0.727-3.074c0.479-0.904,1.129-1.677,1.952-2.314
		C6.641,7.573,7.6,7.084,8.7,6.742C9.803,6.4,10.979,6.23,12.23,6.23c2.202,0,4.045,0.309,5.532,0.925v2.896
		c-1.651-0.958-3.595-1.437-5.823-1.437c-0.834,0-1.624,0.101-2.358,0.305C8.845,9.122,8.202,9.421,7.647,9.814
		c-0.555,0.395-0.99,0.883-1.31,1.469c-0.321,0.584-0.479,1.264-0.479,2.039c0,0.734,0.112,1.369,0.322,1.899
		c0.212,0.532,0.559,1.036,1.034,1.509c0.476,0.473,1.103,0.941,1.879,1.408c0.775,0.467,1.727,1,2.846,1.605
		c1.172,0.63,2.196,1.244,3.068,1.841c0.868,0.599,1.598,1.222,2.179,1.872c0.582,0.65,1.014,1.338,1.298,2.067
		c0.288,0.729,0.434,1.539,0.434,2.433c0,1.234-0.232,2.322-0.687,3.262c-0.456,0.938-1.095,1.718-1.914,2.334
		c-0.825,0.617-1.8,1.083-2.933,1.397c-1.134,0.315-2.379,0.474-3.735,0.474c-0.445,0-0.97-0.035-1.586-0.108
		c-0.612-0.073-1.229-0.177-1.854-0.317c-0.625-0.137-1.222-0.301-1.791-0.49c-0.566-0.191-1.024-0.398-1.376-0.622V30.814z"/>
	<path fill="#2B3990" stroke="#2B3990" stroke-miterlimit="10" d="M35.846,34.95v-3.586h-0.077
		c-0.654,1.288-1.538,2.286-2.671,2.995c-1.122,0.709-2.398,1.064-3.819,1.064c-0.966,0-1.834-0.14-2.61-0.414
		c-0.775-0.275-1.435-0.666-1.973-1.172c-0.542-0.506-0.958-1.112-1.254-1.822c-0.295-0.709-0.438-1.491-0.438-2.344
		c0-1.826,0.557-3.281,1.679-4.365c1.127-1.082,2.819-1.789,5.088-2.117l6.076-0.886c0-3.874-1.489-5.812-4.476-5.812
		c-2.33,0-4.497,0.861-6.488,2.582v-2.758c0.416-0.303,0.886-0.576,1.415-0.818c0.525-0.244,1.086-0.453,1.669-0.631
		c0.59-0.176,1.194-0.314,1.812-0.413s1.22-0.147,1.809-0.147c2.23,0,3.912,0.631,5.054,1.891c1.139,1.262,1.71,3.139,1.71,5.633
		v13.12H35.846z M30.687,25.161c-0.903,0.13-1.672,0.294-2.311,0.491c-0.634,0.199-1.162,0.464-1.58,0.799
		c-0.418,0.336-0.725,0.748-0.917,1.242c-0.198,0.49-0.295,1.099-0.295,1.821c0,0.536,0.095,1.035,0.282,1.497
		c0.189,0.458,0.462,0.856,0.822,1.191c0.356,0.334,0.797,0.594,1.31,0.777c0.514,0.185,1.101,0.276,1.75,0.276
		c0.887,0,1.701-0.171,2.444-0.513c0.74-0.342,1.383-0.814,1.925-1.418c0.542-0.605,0.963-1.328,1.275-2.167
		c0.306-0.84,0.456-1.753,0.456-2.739v-1.988L30.687,25.161z"/>
	<path fill="#2B3990" stroke="#2B3990" stroke-miterlimit="10" d="M51.503,34.95h-2.384l-7.664-20.173h2.759l5.531,15.367
		c0.341,0.934,0.554,1.752,0.644,2.462h0.079c0.156-0.946,0.359-1.739,0.608-2.384l5.728-15.445h2.676L51.503,34.95z"/>
	<path fill="#2B3990" stroke="#2B3990" stroke-miterlimit="10" d="M70.156,34.95h-2.388l-7.66-20.173h2.753l5.535,15.367
		c0.337,0.934,0.554,1.752,0.647,2.462h0.074c0.157-0.946,0.363-1.739,0.607-2.384l5.728-15.445h2.68L70.156,34.95z"/>
	<path fill="#2B3990" stroke="#2B3990" stroke-miterlimit="10" d="M87.476,38.614c-0.782,1.97-1.679,3.431-2.7,4.384
		c-1.017,0.951-2.247,1.428-3.693,1.428c-0.718,0-1.324-0.086-1.818-0.257v-2.363c0.287,0.106,0.574,0.185,0.869,0.235
		c0.295,0.054,0.588,0.08,0.894,0.08c0.815,0,1.531-0.261,2.138-0.777c0.607-0.521,1.129-1.305,1.575-2.354l1.739-4.137
		l-7.701-20.076h2.774l5.729,15.978c0.075,0.211,0.15,0.449,0.227,0.719c0.068,0.271,0.138,0.535,0.202,0.797h0.097
		c0.066-0.224,0.13-0.448,0.19-0.68c0.055-0.229,0.134-0.481,0.242-0.757l6.076-16.057h2.643L87.476,38.614z"/>
</g>
</svg>
