<?xml version="1.0" encoding="utf-8"?>
<!-- Generator: Adobe Illustrator 16.0.0, SVG Export Plug-In . SVG Version: 6.00 Build 0)  -->
<!DOCTYPE svg PUBLIC "-//W3C//DTD SVG 1.1//EN" "http://www.w3.org/Graphics/SVG/1.1/DTD/svg11.dtd">
<svg version="1.1" id="Layer_1" xmlns="http://www.w3.org/2000/svg" xmlns:xlink="http://www.w3.org/1999/xlink" x="0px" y="0px"
	 width="150px" height="50px" viewBox="0 0 150 50" enable-background="new 0 0 150 50" xml:space="preserve">
<g>
	<g>
		<path fill="#2B3990" stroke="#2B3990" stroke-miterlimit="10" d="M51.197,32.73c0.467,0.354,0.989,0.674,1.555,0.956
			c0.564,0.281,1.146,0.518,1.739,0.708c0.592,0.192,1.192,0.334,1.787,0.434c0.601,0.098,1.175,0.148,1.722,0.148
			c2.125,0,3.716-0.414,4.771-1.243c1.053-0.827,1.58-2.016,1.58-3.566c0-0.748-0.121-1.401-0.367-1.958
			c-0.248-0.56-0.635-1.079-1.156-1.565c-0.521-0.487-1.18-0.968-1.974-1.448c-0.796-0.48-1.734-1.02-2.815-1.625
			c-1.2-0.656-2.225-1.276-3.078-1.861c-0.857-0.584-1.553-1.18-2.092-1.793c-0.545-0.611-0.939-1.269-1.193-1.98
			c-0.254-0.708-0.381-1.516-0.381-2.422c0-1.142,0.242-2.168,0.727-3.074c0.479-0.905,1.129-1.677,1.952-2.314
			c0.821-0.636,1.78-1.126,2.881-1.467c1.103-0.342,2.279-0.513,3.53-0.513c2.202,0,4.045,0.309,5.532,0.925v2.896
			c-1.651-0.958-3.595-1.437-5.823-1.437c-0.834,0-1.624,0.101-2.357,0.305c-0.736,0.203-1.38,0.502-1.936,0.896
			c-0.555,0.395-0.99,0.882-1.31,1.468c-0.321,0.585-0.479,1.264-0.479,2.04c0,0.733,0.112,1.369,0.322,1.899
			c0.212,0.533,0.559,1.036,1.034,1.509s1.103,0.942,1.879,1.409c0.775,0.466,1.727,1,2.846,1.604
			c1.172,0.63,2.195,1.245,3.068,1.841c0.867,0.598,1.598,1.221,2.179,1.872s1.014,1.338,1.298,2.068
			c0.288,0.729,0.435,1.539,0.435,2.432c0,1.235-0.232,2.322-0.687,3.262c-0.455,0.939-1.096,1.718-1.914,2.334
			c-0.824,0.618-1.8,1.083-2.934,1.398c-1.134,0.315-2.379,0.473-3.734,0.473c-0.445,0-0.97-0.035-1.586-0.108
			c-0.611-0.073-1.229-0.177-1.854-0.317c-0.625-0.137-1.222-0.301-1.791-0.49c-0.565-0.192-1.024-0.399-1.376-0.623V32.73z"/>
		<path fill="#2B3990" stroke="#2B3990" stroke-miterlimit="10" d="M84,36.866V33.28h-0.077c-0.654,1.288-1.538,2.287-2.671,2.995
			c-1.122,0.709-2.398,1.064-3.82,1.064c-0.965,0-1.834-0.139-2.609-0.414s-1.435-0.666-1.973-1.171
			c-0.542-0.506-0.958-1.112-1.254-1.822c-0.296-0.709-0.439-1.492-0.439-2.344c0-1.826,0.558-3.281,1.68-4.365
			c1.127-1.082,2.818-1.789,5.088-2.117L84,24.22c0-3.875-1.489-5.811-4.477-5.811c-2.329,0-4.496,0.861-6.488,2.582v-2.759
			c0.416-0.303,0.887-0.576,1.416-0.817c0.524-0.244,1.086-0.454,1.668-0.631c0.591-0.176,1.194-0.314,1.813-0.413
			c0.617-0.099,1.22-0.147,1.809-0.147c2.23,0,3.912,0.631,5.055,1.891c1.139,1.262,1.71,3.139,1.71,5.633v13.12H84z M78.842,27.077
			c-0.904,0.13-1.673,0.293-2.312,0.491c-0.634,0.199-1.161,0.464-1.58,0.799c-0.419,0.335-0.726,0.748-0.917,1.241
			c-0.198,0.491-0.295,1.099-0.295,1.822c0,0.537,0.094,1.035,0.281,1.498c0.189,0.458,0.463,0.856,0.822,1.191
			c0.355,0.334,0.797,0.594,1.309,0.777c0.515,0.185,1.102,0.277,1.75,0.277c0.887,0,1.701-0.171,2.443-0.513
			c0.74-0.341,1.383-0.814,1.926-1.417c0.542-0.605,0.963-1.329,1.275-2.167C83.851,30.235,84,29.322,84,28.336v-1.988
			L78.842,27.077z"/>
		<path fill="#2B3990" stroke="#2B3990" stroke-miterlimit="10" d="M99.657,36.866h-2.384l-7.664-20.172h2.759l5.53,15.367
			c0.342,0.933,0.555,1.752,0.645,2.462h0.079c0.155-0.947,0.359-1.74,0.608-2.384l5.728-15.444h2.676L99.657,36.866z"/>
		<path fill="#2B3990" stroke="#2B3990" stroke-miterlimit="10" d="M118.311,36.866h-2.389l-7.66-20.172h2.754l5.535,15.367
			c0.337,0.933,0.553,1.752,0.646,2.462h0.074c0.156-0.947,0.362-1.74,0.607-2.384l5.728-15.444h2.681L118.311,36.866z"/>
		<path fill="#2B3990" stroke="#2B3990" stroke-miterlimit="10" d="M135.631,40.53c-0.783,1.97-1.68,3.431-2.701,4.384
			c-1.016,0.951-2.246,1.428-3.692,1.428c-0.718,0-1.323-0.086-1.818-0.257v-2.363c0.286,0.106,0.573,0.185,0.869,0.236
			c0.295,0.053,0.589,0.079,0.894,0.079c0.814,0,1.531-0.26,2.138-0.777c0.607-0.521,1.13-1.305,1.575-2.354l1.738-4.137
			l-7.701-20.075h2.774l5.729,15.977c0.075,0.211,0.149,0.449,0.227,0.719c0.067,0.271,0.138,0.535,0.202,0.797h0.098
			c0.065-0.223,0.13-0.449,0.189-0.68c0.055-0.23,0.135-0.481,0.242-0.757l6.076-16.056h2.643L135.631,40.53z"/>
	</g>
	<g>
		<rect x="4.553" y="22.847" fill="#64AA44" width="9.104" height="16.391"/>
		<rect x="15.391" y="13.537" fill="#64AA44" width="9.104" height="25.701"/>
		<rect x="26.229" y="18.52" fill="#64AA44" width="9.104" height="20.718"/>
		<rect x="37.066" y="4.228" fill="#64AA44" width="9.103" height="35.01"/>
	</g>
</g>
</svg>
