<?xml version="1.0" encoding="utf-8"?>
<!-- Generator: Adobe Illustrator 16.0.0, SVG Export Plug-In . SVG Version: 6.00 Build 0)  -->
<!DOCTYPE svg PUBLIC "-//W3C//DTD SVG 1.1//EN" "http://www.w3.org/Graphics/SVG/1.1/DTD/svg11.dtd">
<svg version="1.1" id="Layer_1" xmlns="http://www.w3.org/2000/svg" xmlns:xlink="http://www.w3.org/1999/xlink" x="0px" y="0px"
	 width="150px" height="50px" viewBox="0 0 150 50" enable-background="new 0 0 150 50" xml:space="preserve">
<g>
	<g>
		<path fill="#2B3990" stroke="#2B3990" stroke-miterlimit="10" d="M51.708,31.73c0.467,0.354,0.989,0.674,1.555,0.956
			c0.564,0.281,1.146,0.518,1.739,0.708c0.592,0.192,1.192,0.334,1.787,0.434c0.601,0.098,1.174,0.148,1.722,0.148
			c2.125,0,3.716-0.414,4.771-1.243c1.052-0.827,1.58-2.016,1.58-3.566c0-0.748-0.121-1.401-0.367-1.958
			c-0.249-0.56-0.636-1.079-1.156-1.565c-0.521-0.487-1.181-0.968-1.974-1.448c-0.795-0.48-1.734-1.02-2.816-1.625
			c-1.2-0.656-2.225-1.276-3.077-1.861c-0.857-0.584-1.553-1.18-2.092-1.793c-0.545-0.611-0.939-1.269-1.194-1.98
			c-0.253-0.708-0.381-1.516-0.381-2.422c0-1.142,0.243-2.168,0.727-3.074c0.479-0.905,1.129-1.677,1.952-2.314
			c0.822-0.636,1.78-1.126,2.881-1.467c1.103-0.342,2.279-0.513,3.53-0.513c2.202,0,4.045,0.309,5.532,0.925v2.896
			c-1.651-0.958-3.595-1.437-5.823-1.437c-0.834,0-1.624,0.101-2.358,0.305c-0.736,0.203-1.379,0.502-1.935,0.896
			c-0.555,0.395-0.99,0.882-1.31,1.468c-0.321,0.585-0.479,1.264-0.479,2.04c0,0.733,0.112,1.369,0.322,1.899
			c0.212,0.533,0.559,1.036,1.034,1.509c0.476,0.473,1.103,0.942,1.879,1.409c0.775,0.466,1.727,1,2.846,1.604
			c1.172,0.63,2.196,1.245,3.068,1.841c0.868,0.598,1.598,1.221,2.179,1.872c0.582,0.65,1.014,1.338,1.298,2.068
			c0.288,0.729,0.434,1.539,0.434,2.432c0,1.235-0.232,2.322-0.687,3.262c-0.456,0.939-1.095,1.718-1.914,2.334
			c-0.825,0.618-1.8,1.083-2.933,1.398c-1.134,0.315-2.379,0.473-3.735,0.473c-0.445,0-0.97-0.035-1.586-0.108
			c-0.612-0.073-1.229-0.177-1.854-0.317c-0.625-0.137-1.222-0.301-1.791-0.49c-0.566-0.192-1.024-0.399-1.376-0.623V31.73z"/>
		<path fill="#2B3990" stroke="#2B3990" stroke-miterlimit="10" d="M84.511,35.866V32.28h-0.077
			c-0.654,1.288-1.538,2.287-2.671,2.995c-1.122,0.709-2.398,1.064-3.819,1.064c-0.966,0-1.834-0.139-2.61-0.414
			c-0.775-0.275-1.435-0.666-1.973-1.171c-0.542-0.506-0.958-1.112-1.254-1.822c-0.295-0.709-0.438-1.492-0.438-2.344
			c0-1.826,0.557-3.281,1.679-4.365c1.127-1.082,2.819-1.789,5.088-2.117l6.076-0.886c0-3.875-1.489-5.811-4.476-5.811
			c-2.33,0-4.497,0.861-6.488,2.582v-2.759c0.416-0.303,0.886-0.576,1.415-0.817c0.525-0.244,1.086-0.454,1.669-0.631
			c0.59-0.176,1.194-0.314,1.812-0.413c0.618-0.099,1.22-0.147,1.809-0.147c2.23,0,3.912,0.631,5.054,1.891
			c1.139,1.262,1.71,3.139,1.71,5.633v13.12H84.511z M79.352,26.077c-0.903,0.13-1.672,0.293-2.311,0.491
			c-0.634,0.199-1.162,0.464-1.58,0.799c-0.418,0.335-0.725,0.748-0.917,1.241c-0.198,0.491-0.295,1.099-0.295,1.822
			c0,0.537,0.095,1.035,0.282,1.498c0.189,0.458,0.462,0.856,0.822,1.191c0.356,0.334,0.797,0.594,1.31,0.777
			c0.514,0.185,1.101,0.277,1.75,0.277c0.887,0,1.701-0.171,2.444-0.513c0.74-0.341,1.383-0.814,1.925-1.417
			c0.542-0.605,0.963-1.329,1.275-2.167c0.306-0.84,0.456-1.753,0.456-2.739v-1.988L79.352,26.077z"/>
		<path fill="#2B3990" stroke="#2B3990" stroke-miterlimit="10" d="M100.168,35.866h-2.384L90.12,15.694h2.759l5.531,15.367
			c0.341,0.933,0.554,1.752,0.644,2.462h0.079c0.156-0.947,0.359-1.74,0.608-2.384l5.728-15.444h2.676L100.168,35.866z"/>
		<path fill="#2B3990" stroke="#2B3990" stroke-miterlimit="10" d="M118.821,35.866h-2.388l-7.66-20.172h2.753l5.535,15.367
			c0.337,0.933,0.554,1.752,0.647,2.462h0.074c0.157-0.947,0.363-1.74,0.607-2.384l5.728-15.444h2.68L118.821,35.866z"/>
		<path fill="#2B3990" stroke="#2B3990" stroke-miterlimit="10" d="M136.141,39.53c-0.782,1.97-1.679,3.431-2.7,4.384
			c-1.017,0.951-2.247,1.428-3.693,1.428c-0.718,0-1.324-0.086-1.818-0.257v-2.363c0.287,0.106,0.574,0.185,0.869,0.236
			c0.295,0.053,0.588,0.079,0.894,0.079c0.815,0,1.531-0.26,2.138-0.777c0.607-0.521,1.129-1.305,1.575-2.354l1.739-4.137
			l-7.701-20.075h2.774l5.729,15.977c0.075,0.211,0.15,0.449,0.227,0.719c0.068,0.271,0.138,0.535,0.202,0.797h0.097
			c0.066-0.223,0.13-0.449,0.19-0.68c0.055-0.23,0.134-0.481,0.242-0.757l6.076-16.056h2.643L136.141,39.53z"/>
	</g>
	<g>
		<rect x="5.064" y="21.847" fill="#64AA44" width="9.104" height="16.391"/>
		<rect x="15.901" y="12.537" fill="#64AA44" width="9.104" height="25.701"/>
		<rect x="26.739" y="17.52" fill="#64AA44" width="9.104" height="20.718"/>
		<rect x="37.577" y="3.228" fill="#64AA44" width="9.103" height="35.01"/>
	</g>
	<g>
		<path fill="#2B3990" d="M6.51,40.504v5.893H5.696v-5.893H6.51z"/>
		<path fill="#2B3990" d="M8.75,46.397v-5.893h0.772l1.312,2.763c0.296,0.629,0.666,1.416,0.909,2.055h0.021
			c-0.063-0.927-0.095-1.688-0.095-2.71v-2.107h0.729v5.893h-0.772l-1.354-2.833c-0.286-0.594-0.592-1.268-0.846-2.002H9.406
			c0.063,0.787,0.084,1.539,0.084,2.798v2.037H8.75z"/>
		<path fill="#2B3990" d="M15.779,46.397l-1.629-5.893h0.867l0.698,2.763c0.169,0.664,0.38,1.512,0.507,2.264h0.032
			c0.106-0.761,0.307-1.583,0.476-2.282l0.677-2.746h0.867l-1.66,5.893H15.779z"/>
		<path fill="#2B3990" d="M22.618,43.6h-1.787v2.212h2.03v0.586h-2.845v-5.893h2.718v0.586h-1.903v1.941h1.787V43.6z"/>
		<path fill="#2B3990" d="M24.551,45.619c0.243,0.131,0.666,0.236,1.025,0.236c0.74,0,1.185-0.402,1.185-0.997
			c0-0.542-0.381-0.874-0.941-1.224c-0.561-0.324-1.343-0.875-1.343-1.635c0-0.892,0.751-1.547,1.882-1.547
			c0.444,0,0.835,0.114,1.004,0.218l-0.201,0.577c-0.18-0.105-0.476-0.201-0.846-0.201c-0.698,0-1.026,0.438-1.026,0.839
			c0,0.586,0.37,0.813,1.047,1.215c0.857,0.499,1.237,1.041,1.237,1.696c0,1.014-0.867,1.652-1.999,1.652
			c-0.486,0-1.004-0.131-1.206-0.253L24.551,45.619z"/>
		<path fill="#2B3990" d="M30.311,41.108h-1.3v-0.604h3.415v0.604h-1.3v5.29h-0.814V41.108z"/>
		<path fill="#2B3990" d="M38.44,43.862c-0.053-0.778-0.105-1.644-0.074-2.308h-0.042c-0.159,0.656-0.349,1.355-0.571,2.046
			l-0.877,2.763h-0.518l-0.835-2.649c-0.232-0.752-0.444-1.478-0.582-2.16h-0.032c0,0.691-0.042,1.513-0.084,2.352l-0.138,2.492
			h-0.729l0.423-5.893h0.878l0.835,2.693c0.244,0.778,0.423,1.355,0.571,2.029h0.032c0.137-0.673,0.296-1.233,0.529-2.029
			l0.804-2.693h0.909l0.413,5.893h-0.762L38.44,43.862z"/>
		<path fill="#2B3990" d="M44.01,43.6h-1.787v2.212h2.03v0.586h-2.845v-5.893h2.718v0.586h-1.903v1.941h1.787V43.6z"/>
		<path fill="#2B3990" d="M46.101,46.397v-5.893h0.772l1.312,2.763c0.296,0.629,0.666,1.416,0.909,2.055h0.021
			c-0.063-0.927-0.095-1.688-0.095-2.71v-2.107h0.729v5.893h-0.772l-1.354-2.833c-0.286-0.594-0.592-1.268-0.846-2.002h-0.021
			c0.063,0.787,0.084,1.539,0.084,2.798v2.037H46.101z"/>
		<path fill="#2B3990" d="M52.802,41.108h-1.301v-0.604h3.416v0.604h-1.3v5.29h-0.814V41.108z"/>
		<path fill="#2B3990" d="M56.363,45.619c0.243,0.131,0.666,0.236,1.025,0.236c0.74,0,1.185-0.402,1.185-0.997
			c0-0.542-0.381-0.874-0.941-1.224c-0.561-0.324-1.343-0.875-1.343-1.635c0-0.892,0.751-1.547,1.882-1.547
			c0.444,0,0.835,0.114,1.004,0.218l-0.201,0.577c-0.18-0.105-0.476-0.201-0.846-0.201c-0.698,0-1.026,0.438-1.026,0.839
			c0,0.586,0.37,0.813,1.047,1.215c0.857,0.499,1.237,1.041,1.237,1.696c0,1.014-0.867,1.652-1.999,1.652
			c-0.486,0-1.004-0.131-1.206-0.253L56.363,45.619z"/>
		<path fill="#2B3990" d="M64.755,44.631l-0.476,1.766h-0.783l1.628-5.893h0.899l1.586,5.893h-0.804l-0.476-1.766H64.755z
			 M66.225,44.089l-0.37-1.495c-0.106-0.42-0.201-0.909-0.286-1.347h-0.042c-0.084,0.446-0.19,0.953-0.285,1.347l-0.37,1.495H66.225
			z"/>
		<path fill="#2B3990" d="M69.447,46.397v-5.893h0.772l1.312,2.763c0.296,0.629,0.666,1.416,0.909,2.055h0.021
			c-0.063-0.927-0.095-1.688-0.095-2.71v-2.107h0.729v5.893h-0.772l-1.354-2.833c-0.286-0.594-0.592-1.268-0.846-2.002h-0.021
			c0.063,0.787,0.084,1.539,0.084,2.798v2.037H69.447z"/>
		<path fill="#2B3990" d="M75.313,40.592c0.317-0.079,0.688-0.114,1.1-0.114c0.75,0,1.279,0.158,1.67,0.446
			c0.55,0.393,0.962,1.154,0.962,2.387c0,1.347-0.402,2.081-0.856,2.483c-0.465,0.438-1.142,0.639-1.967,0.639
			c-0.328,0-0.667-0.018-0.91-0.062V40.592z M76.127,45.847c0.116,0.018,0.232,0.018,0.307,0.018c0.899,0,1.766-0.534,1.766-2.536
			c0-1.486-0.55-2.299-1.692-2.299c-0.127,0-0.275,0.008-0.381,0.035V45.847z"/>
		<path fill="#2B3990" d="M83.578,40.592c0.328-0.07,0.719-0.114,1.185-0.114c0.656,0,1.206,0.131,1.576,0.438
			c0.349,0.28,0.528,0.708,0.528,1.215c0,0.542-0.158,0.909-0.433,1.207c-0.392,0.437-1.047,0.656-1.682,0.656
			c-0.137,0-0.243,0-0.359-0.009v2.413h-0.814V40.592z M84.393,43.416c0.095,0.018,0.18,0.026,0.317,0.026
			c0.803,0,1.343-0.438,1.343-1.268c0-0.603-0.307-1.145-1.206-1.145c-0.19,0-0.349,0.017-0.455,0.043V43.416z"/>
		<path fill="#2B3990" d="M88.746,40.504h0.814v5.325h2.009v0.568h-2.824V40.504z"/>
		<path fill="#2B3990" d="M94.222,44.631l-0.476,1.766h-0.783l1.629-5.893h0.898l1.586,5.893h-0.804l-0.476-1.766H94.222z
			 M95.691,44.089l-0.37-1.495c-0.106-0.42-0.201-0.909-0.286-1.347h-0.042c-0.084,0.446-0.19,0.953-0.285,1.347l-0.37,1.495H95.691
			z"/>
		<path fill="#2B3990" d="M98.914,46.397v-5.893h0.772l1.312,2.763c0.296,0.629,0.666,1.416,0.909,2.055h0.021
			c-0.063-0.927-0.095-1.688-0.095-2.71v-2.107h0.73v5.893h-0.772l-1.354-2.833c-0.286-0.594-0.592-1.268-0.846-2.002h-0.021
			c0.063,0.787,0.084,1.539,0.084,2.798v2.037H98.914z"/>
		<path fill="#2B3990" d="M104.779,46.397v-5.893h0.772l1.312,2.763c0.296,0.629,0.666,1.416,0.909,2.055h0.021
			c-0.063-0.927-0.095-1.688-0.095-2.71v-2.107h0.729v5.893h-0.772l-1.354-2.833c-0.286-0.594-0.592-1.268-0.846-2.002h-0.021
			c0.063,0.787,0.084,1.539,0.084,2.798v2.037H104.779z"/>
		<path fill="#2B3990" d="M111.459,40.504v5.893h-0.814v-5.893H111.459z"/>
		<path fill="#2B3990" d="M113.699,46.397v-5.893h0.772l1.312,2.763c0.296,0.629,0.666,1.416,0.909,2.055h0.021
			c-0.063-0.927-0.095-1.688-0.095-2.71v-2.107h0.729v5.893h-0.772l-1.354-2.833c-0.286-0.594-0.592-1.268-0.846-2.002h-0.021
			c0.063,0.787,0.084,1.539,0.084,2.798v2.037H113.699z"/>
		<path fill="#2B3990" d="M123.076,46.249c-0.307,0.104-0.814,0.201-1.269,0.201c-0.624,0-1.205-0.14-1.681-0.577
			c-0.518-0.455-0.867-1.268-0.856-2.343c0.011-2.291,1.428-3.078,2.686-3.078c0.444,0,0.793,0.07,1.015,0.166l-0.18,0.577
			c-0.19-0.079-0.444-0.14-0.825-0.14c-0.888,0-1.85,0.586-1.85,2.413c0,1.819,0.835,2.405,1.691,2.405
			c0.275,0,0.434-0.044,0.497-0.07v-1.923h-0.92v-0.56h1.692V46.249z"/>
	</g>
</g>
</svg>
