<?xml version="1.0" encoding="utf-8"?>
<!-- Generator: Adobe Illustrator 16.0.0, SVG Export Plug-In . SVG Version: 6.00 Build 0)  -->
<!DOCTYPE svg PUBLIC "-//W3C//DTD SVG 1.1//EN" "http://www.w3.org/Graphics/SVG/1.1/DTD/svg11.dtd">
<svg version="1.1" id="Layer_1" xmlns="http://www.w3.org/2000/svg" xmlns:xlink="http://www.w3.org/1999/xlink" x="0px" y="0px"
	 width="150px" height="50px" viewBox="0 0 150 50" enable-background="new 0 0 150 50" xml:space="preserve">
<g>
	<rect x="4.474" y="22.465" fill="#406731" width="9.104" height="10.773"/>
	<rect x="15.311" y="16.346" fill="#406731" width="9.104" height="16.893"/>
	<rect x="26.147" y="19.621" fill="#406731" width="9.104" height="13.617"/>
	<rect x="36.985" y="10.228" fill="#406731" width="9.104" height="23.011"/>
</g>
<g>
	<path fill="#2B2E38" d="M48.709,28.909c6.079,0.324,10.194,0.486,12.346,0.486c0.51,0,0.915-0.146,1.215-0.438
		c0.299-0.292,0.449-0.686,0.449-1.184v-2.92h-7.654c-2.329,0-4.021-0.513-5.075-1.541c-1.054-1.027-1.581-2.676-1.581-4.947v-0.974
		c0-2.271,0.526-3.92,1.581-4.947c1.053-1.027,2.746-1.541,5.075-1.541h11.681v4.542H56.397c-1.332,0-1.997,0.649-1.997,1.946v0.649
		c0,1.298,0.666,1.947,1.997,1.947h5.99c2.174,0,3.771,0.498,4.792,1.492c1.021,0.995,1.531,2.553,1.531,4.672v1.622
		c0,2.12-0.511,3.677-1.531,4.672c-1.021,0.995-2.618,1.492-4.792,1.492c-1.131,0-2.329-0.021-3.594-0.064l-3.062-0.13
		c-2.263-0.108-4.604-0.26-7.022-0.454V28.909z"/>
	<path fill="#2B2E38" d="M72.204,16.743c4.06-0.433,7.72-0.649,10.981-0.649c1.509,0,2.718,0.443,3.627,1.33
		c0.91,0.887,1.365,2.065,1.365,3.536v12.653H83.02l-0.333-1.622c-1.043,0.67-2.113,1.163-3.211,1.476s-2.025,0.47-2.779,0.47
		h-1.165c-1.509,0-2.718-0.443-3.627-1.33c-0.91-0.886-1.364-2.065-1.364-3.536v-1.46c0-1.471,0.455-2.649,1.364-3.536
		c0.91-0.887,2.119-1.33,3.627-1.33h6.822v-1.298c0-0.325-0.111-0.595-0.333-0.811c-0.222-0.216-0.499-0.325-0.832-0.325
		c-1.442,0-3.034,0.065-4.775,0.195c-1.742,0.13-3.145,0.227-4.209,0.292V16.743z M78.36,29.395c1.176,0,2.507-0.216,3.994-0.648
		V26.8h-4.826c-0.333,0-0.61,0.108-0.832,0.324c-0.222,0.217-0.333,0.487-0.333,0.811v0.325c0,0.324,0.111,0.595,0.333,0.811
		c0.222,0.216,0.5,0.324,0.832,0.324H78.36z"/>
	<path fill="#2B2E38" d="M102.653,16.418h6.157l-6.656,17.195h-6.656l-6.655-17.195H95l3.826,11.68L102.653,16.418z"/>
	<path fill="#2B2E38" d="M121.954,16.418h6.157l-6.656,17.195h-6.656l-6.655-17.195h6.157l3.826,11.68L121.954,16.418z"/>
	<path fill="#2B2E38" d="M134.1,39.453c-1.176,0-2.617-0.108-4.326-0.325v-4.217h2.996c0.842,0,1.392-0.227,1.646-0.682
		c0.256-0.454,0.205-1.092-0.149-1.914l-6.822-15.897h6.157l4.159,11.031l3.494-11.031h6.157l-6.656,17.844
		c-0.644,1.708-1.476,3.001-2.496,3.877S135.853,39.453,134.1,39.453z"/>
</g>
</svg>
