<?xml version="1.0" encoding="utf-8"?>
<!-- Generator: Adobe Illustrator 16.0.0, SVG Export Plug-In . SVG Version: 6.00 Build 0)  -->
<!DOCTYPE svg PUBLIC "-//W3C//DTD SVG 1.1//EN" "http://www.w3.org/Graphics/SVG/1.1/DTD/svg11.dtd">
<svg version="1.1" id="Layer_1" xmlns="http://www.w3.org/2000/svg" xmlns:xlink="http://www.w3.org/1999/xlink" x="0px" y="0px"
	 width="150px" height="50px" viewBox="0 0 150 50" enable-background="new 0 0 150 50" xml:space="preserve">
<g>
	<rect x="3.064" y="22.465" fill="#406731" width="9.104" height="10.772"/>
	<rect x="13.901" y="16.346" fill="#406731" width="9.104" height="16.892"/>
	<rect x="24.739" y="19.621" fill="#406731" width="9.104" height="13.617"/>
	<rect x="35.577" y="10.228" fill="#406731" width="9.103" height="23.01"/>
</g>
<g>
	<path fill="#2B2E38" d="M4.818,35.179v3.559H3.971v-3.559H4.818z"/>
	<path fill="#2B2E38" d="M7.15,38.738v-3.559h0.803l1.364,1.668c0.308,0.38,0.693,0.855,0.946,1.241h0.022
		c-0.066-0.56-0.099-1.019-0.099-1.637v-1.272h0.759v3.559h-0.803l-1.408-1.71c-0.297-0.359-0.616-0.766-0.88-1.209H7.833
		c0.066,0.475,0.088,0.929,0.088,1.689v1.23H7.15z"/>
	<path fill="#2B2E38" d="M14.465,38.738l-1.694-3.559h0.902l0.726,1.668c0.176,0.401,0.396,0.914,0.528,1.368h0.033
		c0.11-0.459,0.319-0.956,0.495-1.378l0.704-1.658h0.902l-1.728,3.559H14.465z"/>
	<path fill="#2B2E38" d="M21.583,37.048h-1.859v1.336h2.112v0.354h-2.959v-3.559h2.827v0.354h-1.98v1.172h1.859V37.048z"/>
	<path fill="#2B2E38" d="M23.596,38.268c0.253,0.079,0.693,0.143,1.067,0.143c0.771,0,1.232-0.243,1.232-0.602
		c0-0.327-0.396-0.528-0.979-0.739c-0.583-0.195-1.397-0.528-1.397-0.987c0-0.539,0.781-0.935,1.958-0.935
		c0.462,0,0.869,0.069,1.045,0.132l-0.209,0.348c-0.187-0.063-0.495-0.121-0.88-0.121c-0.726,0-1.067,0.264-1.067,0.507
		c0,0.354,0.385,0.491,1.089,0.734c0.891,0.301,1.287,0.628,1.287,1.024c0,0.613-0.902,0.998-2.08,0.998
		c-0.506,0-1.045-0.079-1.254-0.153L23.596,38.268z"/>
	<path fill="#2B2E38" d="M29.591,35.543h-1.354v-0.364h3.554v0.364h-1.353v3.194h-0.847V35.543z"/>
	<path fill="#2B2E38" d="M38.05,37.207c-0.055-0.47-0.11-0.992-0.077-1.394h-0.044c-0.165,0.396-0.363,0.818-0.594,1.235
		l-0.913,1.668h-0.539l-0.869-1.6c-0.242-0.454-0.462-0.893-0.605-1.304h-0.033c0,0.417-0.044,0.913-0.088,1.42l-0.143,1.505h-0.759
		l0.44-3.559h0.913l0.869,1.626c0.253,0.47,0.44,0.818,0.594,1.225h0.033c0.143-0.406,0.308-0.744,0.55-1.225l0.836-1.626h0.946
		l0.429,3.559h-0.792L38.05,37.207z"/>
	<path fill="#2B2E38" d="M43.848,37.048h-1.859v1.336h2.112v0.354h-2.959v-3.559h2.827v0.354h-1.98v1.172h1.859V37.048z"/>
	<path fill="#2B2E38" d="M46.025,38.738v-3.559h0.803l1.364,1.668c0.308,0.38,0.693,0.855,0.946,1.241h0.022
		c-0.066-0.56-0.099-1.019-0.099-1.637v-1.272h0.759v3.559h-0.803l-1.408-1.71c-0.297-0.359-0.616-0.766-0.88-1.209h-0.022
		c0.066,0.475,0.088,0.929,0.088,1.689v1.23H46.025z"/>
	<path fill="#2B2E38" d="M53,35.543h-1.353v-0.364H55.2v0.364h-1.353v3.194H53V35.543z"/>
	<path fill="#2B2E38" d="M56.707,38.268c0.253,0.079,0.693,0.143,1.067,0.143c0.771,0,1.232-0.243,1.232-0.602
		c0-0.327-0.396-0.528-0.979-0.739c-0.583-0.195-1.397-0.528-1.397-0.987c0-0.539,0.781-0.935,1.958-0.935
		c0.462,0,0.869,0.069,1.045,0.132l-0.209,0.348c-0.187-0.063-0.495-0.121-0.88-0.121c-0.726,0-1.067,0.264-1.067,0.507
		c0,0.354,0.385,0.491,1.089,0.734c0.891,0.301,1.287,0.628,1.287,1.024c0,0.613-0.902,0.998-2.08,0.998
		c-0.506,0-1.045-0.079-1.254-0.153L56.707,38.268z"/>
	<path fill="#2B2E38" d="M65.441,37.671l-0.495,1.066h-0.814l1.694-3.559h0.935l1.65,3.559h-0.836l-0.495-1.066H65.441z
		 M66.97,37.344l-0.385-0.902c-0.11-0.253-0.209-0.549-0.297-0.813h-0.044c-0.088,0.27-0.198,0.576-0.297,0.813l-0.385,0.902H66.97z
		"/>
	<path fill="#2B2E38" d="M70.325,38.738v-3.559h0.803l1.364,1.668c0.308,0.38,0.693,0.855,0.946,1.241h0.022
		c-0.066-0.56-0.099-1.019-0.099-1.637v-1.272h0.759v3.559h-0.803l-1.408-1.71c-0.297-0.359-0.616-0.766-0.88-1.209h-0.022
		c0.066,0.475,0.088,0.929,0.088,1.689v1.23H70.325z"/>
	<path fill="#2B2E38" d="M76.43,35.232c0.33-0.048,0.715-0.069,1.144-0.069c0.781,0,1.331,0.095,1.738,0.269
		c0.572,0.238,1.001,0.697,1.001,1.441c0,0.813-0.418,1.257-0.891,1.5c-0.484,0.264-1.188,0.385-2.046,0.385
		c-0.341,0-0.693-0.01-0.946-0.037V35.232z M77.277,38.405c0.121,0.01,0.242,0.01,0.319,0.01c0.935,0,1.837-0.322,1.837-1.531
		c0-0.897-0.572-1.389-1.76-1.389c-0.132,0-0.286,0.005-0.396,0.021V38.405z"/>
	<path fill="#2B2E38" d="M85.032,35.232c0.341-0.042,0.748-0.069,1.232-0.069c0.682,0,1.254,0.079,1.64,0.264
		c0.363,0.169,0.55,0.427,0.55,0.733c0,0.328-0.165,0.549-0.451,0.729c-0.407,0.264-1.089,0.396-1.749,0.396
		c-0.143,0-0.253,0-0.374-0.005v1.457h-0.847V35.232z M85.879,36.938c0.099,0.011,0.187,0.016,0.33,0.016
		c0.836,0,1.397-0.264,1.397-0.765c0-0.365-0.319-0.692-1.254-0.692c-0.198,0-0.363,0.011-0.473,0.026V36.938z"/>
	<path fill="#2B2E38" d="M90.411,35.179h0.847v3.215h2.09v0.343h-2.938V35.179z"/>
	<path fill="#2B2E38" d="M96.109,37.671l-0.495,1.066H94.8l1.694-3.559h0.936l1.65,3.559h-0.836l-0.495-1.066H96.109z
		 M97.639,37.344l-0.385-0.902c-0.11-0.253-0.209-0.549-0.297-0.813h-0.044c-0.088,0.27-0.198,0.576-0.297,0.813l-0.385,0.902
		H97.639z"/>
	<path fill="#2B2E38" d="M100.994,38.738v-3.559h0.803l1.364,1.668c0.308,0.38,0.693,0.855,0.946,1.241h0.022
		c-0.066-0.56-0.099-1.019-0.099-1.637v-1.272h0.759v3.559h-0.803l-1.408-1.71c-0.297-0.359-0.616-0.766-0.88-1.209h-0.022
		c0.066,0.475,0.088,0.929,0.088,1.689v1.23H100.994z"/>
	<path fill="#2B2E38" d="M107.099,38.738v-3.559h0.803l1.364,1.668c0.308,0.38,0.693,0.855,0.946,1.241h0.022
		c-0.066-0.56-0.099-1.019-0.099-1.637v-1.272h0.759v3.559h-0.803l-1.408-1.71c-0.297-0.359-0.616-0.766-0.88-1.209h-0.022
		c0.066,0.475,0.088,0.929,0.088,1.689v1.23H107.099z"/>
	<path fill="#2B2E38" d="M114.051,35.179v3.559h-0.847v-3.559H114.051z"/>
	<path fill="#2B2E38" d="M116.383,38.738v-3.559h0.803l1.364,1.668c0.308,0.38,0.693,0.855,0.946,1.241h0.022
		c-0.066-0.56-0.099-1.019-0.099-1.637v-1.272h0.759v3.559h-0.803l-1.408-1.71c-0.297-0.359-0.616-0.766-0.88-1.209h-0.022
		c0.066,0.475,0.088,0.929,0.088,1.689v1.23H116.383z"/>
	<path fill="#2B2E38" d="M126.141,38.648c-0.319,0.063-0.847,0.122-1.32,0.122c-0.649,0-1.254-0.084-1.749-0.349
		c-0.539-0.274-0.902-0.766-0.891-1.415c0.011-1.383,1.485-1.858,2.794-1.858c0.462,0,0.825,0.042,1.056,0.101l-0.187,0.349
		c-0.198-0.048-0.462-0.084-0.858-0.084c-0.924,0-1.925,0.354-1.925,1.457c0,1.098,0.869,1.452,1.76,1.452
		c0.286,0,0.451-0.026,0.517-0.042v-1.162h-0.957v-0.338h1.76V38.648z"/>
</g>
<g>
	<path fill="#2B2E38" d="M47.3,28.909c6.079,0.324,10.194,0.486,12.346,0.486c0.51,0,0.915-0.146,1.215-0.438
		c0.299-0.292,0.449-0.686,0.449-1.184v-2.92h-7.654c-2.329,0-4.021-0.513-5.075-1.541c-1.054-1.027-1.581-2.676-1.581-4.947v-0.974
		c0-2.271,0.526-3.92,1.581-4.947c1.053-1.027,2.746-1.541,5.075-1.541h11.681v4.542H54.988c-1.332,0-1.997,0.649-1.997,1.946v0.649
		c0,1.298,0.666,1.947,1.997,1.947h5.99c2.174,0,3.771,0.498,4.792,1.492c1.021,0.995,1.531,2.553,1.531,4.672v1.622
		c0,2.12-0.511,3.677-1.531,4.672c-1.021,0.995-2.618,1.492-4.792,1.492c-1.131,0-2.329-0.021-3.594-0.064l-3.062-0.13
		c-2.263-0.108-4.604-0.26-7.022-0.454V28.909z"/>
	<path fill="#2B2E38" d="M70.795,16.743c4.06-0.433,7.72-0.649,10.981-0.649c1.509,0,2.718,0.443,3.627,1.33
		c0.91,0.887,1.364,2.065,1.364,3.536v12.653H81.61l-0.333-1.622c-1.043,0.67-2.113,1.163-3.211,1.476s-2.025,0.47-2.779,0.47
		h-1.165c-1.509,0-2.718-0.443-3.627-1.33c-0.91-0.886-1.364-2.065-1.364-3.536v-1.46c0-1.471,0.455-2.649,1.364-3.536
		c0.91-0.887,2.119-1.33,3.627-1.33h6.822v-1.298c0-0.325-0.111-0.595-0.333-0.811c-0.222-0.216-0.499-0.325-0.832-0.325
		c-1.442,0-3.034,0.065-4.775,0.195c-1.742,0.13-3.145,0.227-4.209,0.292V16.743z M76.951,29.395c1.176,0,2.507-0.216,3.994-0.648
		V26.8h-4.826c-0.333,0-0.61,0.108-0.832,0.324c-0.222,0.217-0.333,0.487-0.333,0.811v0.325c0,0.324,0.111,0.595,0.333,0.811
		c0.222,0.216,0.5,0.324,0.832,0.324H76.951z"/>
	<path fill="#2B2E38" d="M101.244,16.418h6.157l-6.656,17.195h-6.656l-6.656-17.195h6.157l3.827,11.68L101.244,16.418z"/>
	<path fill="#2B2E38" d="M120.545,16.418h6.157l-6.656,17.195h-6.656l-6.656-17.195h6.157l3.827,11.68L120.545,16.418z"/>
	<path fill="#2B2E38" d="M132.691,39.453c-1.176,0-2.618-0.108-4.326-0.325v-4.217h2.995c0.843,0,1.392-0.227,1.647-0.682
		c0.255-0.454,0.205-1.092-0.15-1.914l-6.822-15.897h6.157l4.16,11.031l3.494-11.031h6.157l-6.656,17.844
		c-0.644,1.708-1.476,3.001-2.496,3.877C135.83,39.015,134.443,39.453,132.691,39.453z"/>
</g>
</svg>
